<?xml version="1.0" encoding="UTF-8"?>
<svg xmlns="http://www.w3.org/2000/svg" width="25.0" height="25.0" viewBox="55.0 414.0 25.0 25.0" preserveAspectRatio="none">
    <g>
        <defs>
            <path id="s-Path_2-32ba6" d="M77.32142857142857 439.0 L57.67857142857143 439.0 C56.199218737227575 439.0 55.0 437.8007812627724 55.0 436.32142857142856 L55.0 416.67857142857144 C55.0 415.1992187372276 56.199218737227575 414.0 57.67857142857143 414.0 L77.32142857142857 414.0 C78.80078126277242 414.0 80.0 415.1992187372276 80.0 416.67857142857144 L80.0 436.32142857142856 C80.0 437.8007812627724 78.80078126277242 439.0 77.32142857142857 439.0 Z M65.89921849114555 433.5279576948711 L76.16707563400269 423.2601005520139 C76.5157363563776 422.911439829639 76.5157363563776 422.34609387176374 76.16707563400269 421.9974330961704 L74.90440817815916 420.73476564032694 C74.55574745578426 420.386104917952 73.990401497909 420.3860491184252 73.64168494939804 420.73476564032694 L65.26785714285714 429.1085376739502 L61.35831483772823 425.1989953688213 C61.009654115353314 424.85033464644636 60.44430815747806 424.85033464644636 60.0955916089671 425.1989953688213 L58.832924153123585 426.46166282466476 C58.48426343074867 426.8103235470397 58.48426343074867 427.3756695049149 58.832924153123585 427.7243302805083 L64.63649558169502 433.52790170907974 C64.98521210359675 433.8766740305083 65.55050226194518 433.8766740305083 65.89921881045613 433.5279575126538 Z "></path>
        </defs>
        <g style="mix-blend-mode:normal">
            <use xmlns:xlink="http://www.w3.org/1999/xlink" xlink:href="#s-Path_2-32ba6" fill="#9A2FAE" fill-opacity="1.0"></use>
        </g>
    </g>
</svg>