<?xml version="1.0" encoding="UTF-8"?>
<svg xmlns="http://www.w3.org/2000/svg" width="180.0" height="180.0" viewBox="190.0 385.0 180.0 180.0" preserveAspectRatio="none">
    <g>
        <defs>
            <rect x="190.0" y="385.0" width="180.0" height="180.0" id="s-Rectangle_7-7805d-path"></rect>
        </defs>
        <g style="mix-blend-mode:normal">
            <use xmlns:xlink="http://www.w3.org/1999/xlink" xlink:href="#s-Rectangle_7-7805d-path" fill="#9A2FAE" fill-opacity="1.0"></use>
        </g>
    </g>
    <g>
        <defs>
            <path id="s-Path_9-7805d" d="M279.5892869930632 441.59624898380287 L278.3528576461043 440.35981963684407 C278.01137803032555 440.0183400210653 277.4579079149243 440.0183400210653 277.1164282991455 440.35981963684407 L276.49848676350575 440.97776117248384 L274.91948504098696 439.398759449965 C275.2270898851331 438.23445058118483 274.9391542676374 436.9455698068412 274.0261743452674 436.03258995611645 L271.553861927029 433.5602775378781 C268.1401585290224 430.14657413987146 262.60491089090783 430.14657413987146 259.1906608003767 433.5602775378781 L264.13583212095534 436.03258995611645 L264.13583212095534 437.0570288034528 C264.13583212095534 437.98421421869926 264.5040837261058 438.8737003593959 265.1602709682917 439.5293412216912 L267.8451202660431 442.21419051944264 C268.7581001167679 443.1271703701674 270.0469807869002 443.4151060072028 271.21128975989166 443.1075012151622 L272.79029148241045 444.68650293768104 L272.1723499467707 445.3044444733208 C271.8308703309919 445.6459240890996 271.8308703309919 446.19939420450083 272.1723499467707 446.5408738202796 L273.40877929372954 447.7773031672385 C273.7502589095083 448.11878278301725 274.30372902490956 448.11878278301725 274.64520864068834 447.7773031672385 L279.590379961267 442.8321318466598 C279.93076684331743 442.4911986107716 279.93076684331743 441.93772839115906 279.5892872265209 441.5962487753803 Z M263.9238412565933 440.76577056865 C263.72168532144696 440.5636146335037 263.5501259567481 440.3401503776276 263.38566936128365 440.11286155370215 L249.44783755123734 453.1256929470079 C248.050776163837 454.4304182171225 248.01307678507587 456.63282532629273 249.36424334285786 457.9845381206748 C250.71540990063988 459.3362509150569 252.9183633506215 459.29855164050707 254.22308851652477 457.90094391229536 L267.23373532816987 443.9647506166529 C267.0173738415282 443.8057577028568 266.8021050886149 443.6440329677662 266.6086910623749 443.4506189154733 L263.92384176462343 440.76576961772184 Z "></path>
        </defs>
        <g style="mix-blend-mode:normal">
            <use xmlns:xlink="http://www.w3.org/1999/xlink" xlink:href="#s-Path_9-7805d" fill="#FFFFFF" fill-opacity="1.0"></use>
        </g>
    </g>
    <g>
        <defs>
            <path id="s-Path_10-7805d" d="M247.0 435.0456476650012 L253.2131716097461 442.1240422092924 L256.85555788031814 441.8434144228985 L262.1041535160448 446.3411069246864 C262.322888267747 445.9233745663761 262.5758919891039 445.52130424639927 262.89066190382397 445.1546222551665 C263.20484494310807 444.78798542346874 263.5633695165663 444.4757912853569 263.94266590756183 444.1956494238659 L258.6940702029255 439.69795675847297 L258.4134424337812 436.0555707117908 L250.4668472160234 431.0 L247.0 435.0456476650012 Z M264.7978286333274 452.5671347506791 L272.1988363331701 458.9092982947359 C273.1185890565672 459.69746435183583 274.5037053786175 459.5907480130181 275.29245819489597 458.6709500827383 L278.1471902406683 455.3396120353609 C278.935898005044 454.4192271650479 278.82922688604646 453.03469777009354 277.90884202867056 452.24599017363505 L270.507834535468 445.9038263884388 C268.66769694175787 444.3269525669633 265.8980512247532 444.5403400247785 264.32117740327766 446.3804776184887 C262.74430358180206 448.2206152121988 262.95769103961726 450.9902609292035 264.7978286333274 452.5671347506791 Z "></path>
        </defs>
        <g style="mix-blend-mode:normal">
            <use xmlns:xlink="http://www.w3.org/1999/xlink" xlink:href="#s-Path_10-7805d" fill="#FFFFFF" fill-opacity="1.0" stroke-width="1.0" stroke="#9A2FAE" stroke-linecap="butt"></use>
        </g>
    </g>
    <g>
        <defs>
            <path id="s-Path_11-7805d" d="M292.4345538460133 442.940986477588 L292.4345538460133 458.7380025089569 C292.4345538460133 459.9272664999549 293.3994284047475 460.89214105868905 294.5886923957454 460.89214105868905 L296.7428309454775 460.89214105868905 L296.7428309454775 440.7868479278559 L294.5886923957454 440.7868479278559 C293.3994284047475 440.7868479278559 292.4345538460133 441.7517224865901 292.4345538460133 442.940986477588 Z M298.1789233119656 460.89214105868905 L312.53984697684643 460.89214105868905 L312.53984697684643 440.7868479278559 L298.1789233119656 440.7868479278559 L298.1789233119656 460.89214105868905 Z M301.05110804494177 449.7624252184064 C301.05110804494177 449.5649625137344 301.2126684318918 449.4034021267844 301.4101311365638 449.4034021267844 L303.92329277791794 449.4034021267844 L303.92329277791794 446.89024048543024 C303.92329277791794 446.6927777807582 304.084853164868 446.5312173938082 304.28231586953996 446.5312173938082 L306.4364544192721 446.5312173938082 C306.63391712394406 446.5312173938082 306.7954775108941 446.6927777807582 306.7954775108941 446.89024048543024 L306.7954775108941 449.4034021267844 L309.30863915224825 449.4034021267844 C309.5061018569202 449.4034021267844 309.66766224387027 449.5649625137344 309.66766224387027 449.7624252184064 L309.66766224387027 451.91656376813853 C309.66766224387027 452.11402647281056 309.5061018569202 452.27558685976055 309.30863915224825 452.27558685976055 L306.7954775108941 452.27558685976055 L306.7954775108941 454.7887485011147 C306.7954775108941 454.98621120578673 306.63391712394406 455.1477715927367 306.4364544192721 455.1477715927367 L304.28231586953996 455.1477715927367 C304.084853164868 455.1477715927367 303.92329277791794 454.98621120578673 303.92329277791794 454.7887485011147 L303.92329277791794 452.27558685976055 L301.4101311365638 452.27558685976055 C301.2126684318918 452.27558685976055 301.05110804494177 452.11402647281056 301.05110804494177 451.91656376813853 L301.05110804494177 449.7624252184064 Z M316.13007789306664 440.7868479278559 L313.9759393433345 440.7868479278559 L313.9759393433345 460.89214105868905 L316.13007789306664 460.89214105868905 C317.31934188406456 460.89214105868905 318.28421644279877 459.9272664999549 318.28421644279877 458.7380025089569 L318.28421644279877 442.940986477588 C318.28421644279877 441.7517224865901 317.31934188406456 440.7868479278559 316.13007789306664 440.7868479278559 Z "></path>
        </defs>
        <g style="mix-blend-mode:normal">
            <use xmlns:xlink="http://www.w3.org/1999/xlink" xlink:href="#s-Path_11-7805d" fill="#FFFFFF" fill-opacity="1.0"></use>
        </g>
    </g>
    <g>
        <defs>
            <path id="s-Path_12-7805d" d="M319.8974044811388 478.77449066327756 C318.0244691050891 476.90212073743186 314.9427243593683 476.90212073743186 313.06978898331863 478.77449066327756 L291.8240269882739 500.0202526583223 C289.9187200730443 501.8604647954202 289.8651551648175 504.9425612409129 291.70536730191543 506.84786815614245 C293.54557943901335 508.75317507137197 296.627675884506 508.8067399795988 298.5329827997356 506.9665278425009 C298.5732204006997 506.9276649584846 298.6127796020778 506.8881057571066 298.65164248609403 506.84786815614245 L319.8974044811388 485.6021061610977 C321.7697744069845 483.72917078504804 321.7697744069845 480.64742603932723 319.8974044811388 478.77449066327756 Z M316.8837655524562 484.51990014105553 C315.70076287288947 485.70229923402366 314.6191604394459 485.88819964687536 313.74941206698355 486.037282083067 C312.96838965817443 486.17187867113614 312.40344457457894 486.26845068495976 311.6550146908724 487.01688056866635 C310.9065848071658 487.7653104523729 310.8100127933422 488.3302549603565 310.6754160901507 489.1118816464985 C310.5257300385798 489.9810264323622 310.3404331835461 491.06323256752677 309.1574305615406 492.2456314302501 C307.974427939535 493.4280302929735 306.8928254485303 493.61393093607 306.02368077778897 493.76361695886027 C305.2420538614022 493.89761030569787 304.6777129400172 493.9941823195215 303.9292830563106 494.7426122032281 C303.1808531726041 495.4910420869346 303.08428115878047 496.0553830083196 302.94968445558897 496.83700980958395 C302.8006019762264 497.7061545954477 302.615305135583 498.7883607306122 301.43230251357744 499.9707595933356 C300.2492998915719 501.1531584560589 299.1670939290909 501.3396626857541 298.2979490281048 501.4887451219457 C297.5169259285615 501.6233419402596 296.951981765945 501.7199139540832 296.2035514217489 502.4683438377898 C295.82722471107496 502.8413195577451 295.2106419822789 502.83856210906083 294.8376662623236 502.46223539838684 C294.4669877407546 502.0882265252187 294.4669877407546 501.4764675515326 294.8376662623236 501.1024586783645 C296.02066894189034 499.92005958539636 297.1022713753339 499.7341591725446 297.9714160460752 499.58507673635296 C298.7560606652104 499.4510835765892 299.3173833082351 499.3545119369133 300.0664171239074 498.6054781356313 C300.81545093957976 497.85644433434925 300.9114190214376 497.29270733053977 301.0454121380305 496.5110805292754 C301.1950981896013 495.64193574341164 301.38039504463507 494.5597296082471 302.5633976666406 493.37733074552375 C303.74640028864616 492.1949318828004 304.8280027796509 492.0090312397039 305.6971474503922 491.8599488035123 C306.4817920695274 491.72595564374853 307.0431147125521 491.62878043186424 307.79154505674813 490.88035020279057 C308.53997540094423 490.1319199737169 308.63654695427834 489.5669758111004 308.7717472440685 488.7853491249584 C308.920829723431 487.9162043390947 309.10612656407443 486.83399820393015 310.28912918607995 485.65159934120675 C311.4721318080855 484.4692004784834 312.55373429909025 484.2826962487883 313.4228789698316 484.13361381259665 C314.2045055408512 483.99901664891564 314.7688464622362 483.9030487973025 315.51788050815327 483.1540147513855 C315.8942072188272 482.78103903143017 316.51078994762327 482.78379648011446 316.8837656675786 483.1601231907884 C317.2544441891476 483.5341320639565 317.2544441891476 484.1458910376427 316.8837656675786 484.5198999108108 Z M292.3068855608011 496.8056235366997 L309.8551602070632 479.2573488904377 L309.15863721668717 478.56022231346304 C307.64970525681184 477.0512903535877 305.30482508326344 476.95109728066177 303.92022896952517 478.33569323610675 L291.3852298920799 490.8706931625795 C290.000633893464 492.2552891611954 290.1014305529886 494.60016944986614 291.60975896943614 496.1084977080205 Z M319.41454613885634 488.81673413149656 L301.866271722839 506.36500958361523 L302.562794713215 507.06213616058983 C304.0717266730903 508.5710681204652 306.41660684663873 508.6712611933911 307.801202960377 507.2866652379461 L320.3362020953835 494.7516661029397 C321.72079809399935 493.3670701043238 321.6200014344748 491.02218981565306 320.1116730180272 489.5132578557777 Z "></path>
        </defs>
        <g style="mix-blend-mode:normal">
            <use xmlns:xlink="http://www.w3.org/1999/xlink" xlink:href="#s-Path_12-7805d" fill="#FFFFFF" fill-opacity="1.0"></use>
        </g>
    </g>
    <g>
        <defs>
            <path id="s-Path_13-7805d" d="M271.46342718261985 484.2700910714304 L270.63641807547685 484.2700910714304 L265.0137899713838 477.2415474457593 C264.38626257472407 476.45742438961565 263.4347302073718 476.000125412518 262.43041970508364 475.9999999999999 L251.37382542268298 475.9999999999999 C250.02114864786864 475.9999999999999 248.80492834418502 476.8233909580731 248.30252044567416 478.0794110001118 L245.82614486118533 484.3869058238833 C244.40162170173585 484.755958606398 243.3451175397562 486.03834026566744 243.3451175397562 487.5781275000026 L243.3451175397562 493.367191250004 C243.3451175397562 493.8241137895875 243.71520410731574 494.194200357147 244.17212664689924 494.194200357147 L246.65315396832838 494.194200357147 C246.65315396832838 496.9347018096032 248.87470715873047 499.15625500000533 251.6152086111867 499.15625500000533 C254.3557100636429 499.15625500000533 256.57726325404496 496.9347018096032 256.57726325404496 494.194200357147 L263.1933361111894 494.194200357147 C263.1933361111894 496.9347018096032 265.4148893015915 499.15625500000533 268.1553907540477 499.15625500000533 C270.8958922065039 499.15625500000533 273.11744539690596 496.9347018096032 273.11744539690596 494.194200357147 L275.59847271833513 494.194200357147 C276.05539525791863 494.194200357147 276.4254818254782 493.8241137895875 276.4254818254782 493.367191250004 L276.4254818254782 489.2321457142887 C276.4254818254782 486.4916442618325 274.20392863507607 484.2700910714304 271.46342718261985 484.2700910714304 Z M251.6152086111867 496.67522767857616 C250.2470254550483 496.67522767857616 249.13418128975755 495.56238351328545 249.13418128975755 494.194200357147 C249.13418128975755 492.8260172010086 250.2470254550483 491.7131730357179 251.6152086111867 491.7131730357179 C252.9833917673251 491.7131730357179 254.09623593261583 492.8260172010086 254.09623593261583 494.194200357147 C254.09623593261583 495.56238351328545 252.9833917673251 496.67522767857616 251.6152086111867 496.67522767857616 Z M255.3367495933304 484.2700910714304 L249.38900348666994 484.2700910714304 L251.37382542268298 479.3080364285721 L255.3367495933304 479.3080364285721 L255.3367495933304 484.2700910714304 Z M257.8177769147596 484.2700910714304 L257.8177769147596 479.3080364285721 L262.4304200994323 479.3080364285721 L266.4000639714584 484.2700910714304 L257.8177769147596 484.2700910714304 Z M268.1553907540477 496.67522767857616 C266.7872075979093 496.67522767857616 265.6743634326185 495.56238351328545 265.6743634326185 494.194200357147 C265.6743634326185 492.8260172010086 266.7872075979093 491.7131730357179 268.1553907540477 491.7131730357179 C269.5235739101861 491.7131730357179 270.63641807547685 492.8260172010086 270.63641807547685 494.194200357147 C270.63641807547685 495.56238351328545 269.5235739101861 496.67522767857616 268.1553907540477 496.67522767857616 Z "></path>
        </defs>
        <g style="mix-blend-mode:normal">
            <use xmlns:xlink="http://www.w3.org/1999/xlink" xlink:href="#s-Path_13-7805d" fill="#FFFFFF" fill-opacity="1.0"></use>
        </g>
    </g>
    <g>
        <text x="223.3247718811035" y="541.63671875" font-family="Arial" font-weight="400" font-style="normal" font-size="16.0" fill="#FFFFFF" id="s-Paragraph_6-7805d">
            <tspan font-family="Arial" font-weight="400" font-style="normal" font-size="16.0" fill="#FFFFFF" dy="0.0" x="223.3247718811035">CATEGORIES</tspan>
        </text>
    </g>
</svg>