<?xml version="1.0" encoding="UTF-8"?>
<svg xmlns="http://www.w3.org/2000/svg" width="180.0" height="180.0" viewBox="190.0 157.0 180.0 180.0" preserveAspectRatio="none">
    <g>
        <defs>
            <rect x="190.0" y="157.0" width="180.0" height="180.0" id="s-Rectangle_4-7805d-path"></rect>
        </defs>
        <g style="mix-blend-mode:normal">
            <use xmlns:xlink="http://www.w3.org/1999/xlink" xlink:href="#s-Rectangle_4-7805d-path" fill="#9A2FAE" fill-opacity="1.0"></use>
        </g>
    </g>
    <g>
        <text text-anchor="middle" x="278.570494759338" y="310.37671875000007" font-family="SansSerif" font-weight="400" font-style="normal" font-size="16.0" fill="#FFFFFF" id="s-Paragraph_4-7805d">
            <tspan font-family="SansSerif" font-weight="400" font-style="normal" font-size="16.0" fill="#FFFFFF" dy="0.0" x="278.570494759338">MY PRODUCTS</tspan>
        </text>
    </g>
    <g>
        <defs>
            <path id="s-Path_1-7805d" d="M301.9557069701111 218.0 L260.75403865208045 218.0 C258.1284226988562 218.0 256.0 220.12842288776469 256.0 222.75403865208045 L256.0 257.6169887673371 C256.0 260.2426047205614 258.1284226988562 262.37102741941754 260.75403865208045 262.37102741941754 L301.9557069701111 262.37102741941754 C304.5813229233354 262.37102741941754 306.7097456221916 260.2426047205614 306.7097456221916 257.6169887673371 L306.7097456221916 222.75403865208045 C306.7097456221916 220.12842269885616 304.5813229233354 218.0 301.9557069701111 218.0 Z M301.36145213860107 257.6169887673371 L261.3482934835905 257.6169887673371 C261.02229492756913 257.6169887673371 260.75403865208045 257.3487324918484 260.75403865208045 257.02273393582703 L260.75403865208045 223.3482934835905 C260.75403865208045 223.02229492756913 261.02229492756913 222.75403865208045 261.3482934835905 222.75403865208045 L301.36145213860107 222.75403865208045 C301.68745069462244 222.75403865208045 301.9557069701111 223.02229492756913 301.9557069701111 223.3482934835905 L301.9557069701111 257.02273393582703 C301.9557069701111 257.3487324918484 301.68745069462244 257.6169887673371 301.36145213860107 257.6169887673371 Z M297.20166831803067 248.50508135084957 L297.20166831803067 250.8821006768898 C297.20166831803067 251.5384551239356 296.6695131020564 252.07061033990988 296.01315865501056 252.07061033990988 L276.2046642713419 252.07061033990988 C275.54830982429615 252.07061033990988 275.0161546083218 251.5384551239356 275.0161546083218 250.8821006768898 L275.0161546083218 248.50508135084957 C275.0161546083218 247.84872690380377 275.54830982429615 247.31657168782945 276.2046642713419 247.31657168782945 L296.01315865501056 247.31657168782945 C296.6695131020564 247.31657168782945 297.20166831803067 247.84872690380377 297.20166831803067 248.50508135084957 Z M297.20166831803067 238.99700404668866 L297.20166831803067 241.37402337272889 C297.20166831803067 242.03037781977469 296.6695131020564 242.562533035749 296.01315865501056 242.562533035749 L276.2046642713419 242.562533035749 C275.54830982429615 242.562533035749 275.0161546083218 242.03037781977469 275.0161546083218 241.37402337272889 L275.0161546083218 238.99700404668866 C275.0161546083218 238.34064959964286 275.54830982429615 237.80849438366855 276.2046642713419 237.80849438366855 L296.01315865501056 237.80849438366855 C296.6695131020564 237.80849438366855 297.20166831803067 238.34064959964286 297.20166831803067 238.99700404668866 Z M297.20166831803067 229.48892674252775 L297.20166831803067 231.86594606856798 C297.20166831803067 232.52230051561378 296.6695131020564 233.0544557315881 296.01315865501056 233.0544557315881 L276.2046642713419 233.0544557315881 C275.54830982429615 233.0544557315881 275.0161546083218 232.52230051561378 275.0161546083218 231.86594606856798 L275.0161546083218 229.48892674252775 C275.0161546083218 228.83257229548195 275.54830982429615 228.30041707950764 276.2046642713419 228.30041707950764 L296.01315865501056 228.30041707950764 C296.6695131020564 228.30041707950764 297.20166831803067 228.83257229548195 297.20166831803067 229.48892674252775 Z M272.24296539460823 230.67743640554787 C272.24296539460823 232.64659882920583 270.64659882920586 234.2429653946082 268.6774364055479 234.2429653946082 C266.70827398188993 234.2429653946082 265.11190741648755 232.64659882920583 265.11190741648755 230.67743640554787 C265.11190741648755 228.7082739818899 266.70827398188993 227.11190741648753 268.6774364055479 227.11190741648753 C270.64659882920586 227.11190741648753 272.24296539460823 228.7082739818899 272.24296539460823 230.67743640554787 Z M272.24296539460823 240.18551370970877 C272.24296539460823 242.1546761333667 270.64659882920586 243.7510426987691 268.6774364055479 243.7510426987691 C266.70827398188993 243.7510426987691 265.11190741648755 242.1546761333667 265.11190741648755 240.18551370970877 C265.11190741648755 238.21635128605084 266.70827398188993 236.61998472064843 268.6774364055479 236.61998472064843 C270.64659882920586 236.61998472064843 272.24296539460823 238.21635128605084 272.24296539460823 240.18551370970877 Z M272.24296539460823 249.69359101386968 C272.24296539460823 251.6627534375276 270.64659882920586 253.25912000293 268.6774364055479 253.25912000293 C266.70827398188993 253.25912000293 265.11190741648755 251.6627534375276 265.11190741648755 249.69359101386968 C265.11190741648755 247.72442859021172 266.70827398188993 246.12806202480934 268.6774364055479 246.12806202480934 C270.64659882920586 246.12806202480934 272.24296539460823 247.72442859021172 272.24296539460823 249.69359101386968 Z "></path>
        </defs>
        <g style="mix-blend-mode:normal">
            <use xmlns:xlink="http://www.w3.org/1999/xlink" xlink:href="#s-Path_1-7805d" fill="#FFFFFF" fill-opacity="1.0"></use>
        </g>
    </g>
    <g>
        <defs>
            <rect x="295.0" y="211.0" width="24.0" height="24.000000000000302" rx="12" ry="12" id="s-Paragraph_9-7805d-path"></rect>
        </defs>
        <g style="mix-blend-mode:normal">
            <use xmlns:xlink="http://www.w3.org/1999/xlink" xlink:href="#s-Paragraph_9-7805d-path" fill="#FFFFFF" fill-opacity="1.0"></use>
            <text text-anchor="middle" x="307.0" y="226.88281250000014" font-family="SansSerif" font-weight="700" font-style="normal" font-size="14.0" fill="#9A2FAE" id="s-Paragraph_9-7805d">
                <tspan font-family="SansSerif" font-weight="700" font-style="normal" font-size="14.0" fill="#9A2FAE" dy="0.0" x="307.0">57</tspan>
            </text>
        </g>
    </g>
</svg>