<?xml version="1.0" encoding="UTF-8"?>
<svg xmlns="http://www.w3.org/2000/svg" width="180.0" height="180.0" viewBox="5.0 385.0 180.0 180.0" preserveAspectRatio="none">
    <g>
        <defs>
            <rect x="5.0" y="385.0" width="180.0" height="180.0" id="s-Rectangle_6-7805d-path"></rect>
        </defs>
        <g style="mix-blend-mode:normal">
            <use xmlns:xlink="http://www.w3.org/1999/xlink" xlink:href="#s-Rectangle_6-7805d-path" fill="#9A2FAE" fill-opacity="1.0"></use>
        </g>
    </g>
    <g>
        <defs>
            <path id="s-Path_8-7805d" d="M119.1276762826105 484.39285714285734 L87.90892628261028 484.39285714285734 L87.90892628261028 482.9062500000002 C87.90892628261028 482.088616053707 87.2399530860463 481.419642857143 86.42231913975313 481.419642857143 L83.44910485403882 481.419642857143 C82.63147090774565 481.419642857143 81.96249771118167 482.088616053707 81.96249771118167 482.9062500000002 L81.96249771118167 484.39285714285734 L74.5294619968959 484.39285714285734 C73.71182805060273 484.39285714285734 73.04285485403875 485.06183033942136 73.04285485403875 485.8794642857145 L73.04285485403875 488.8526785714288 C73.04285485403875 489.670312517722 73.71182805060273 490.339285714286 74.5294619968959 490.339285714286 L81.96249771118167 490.339285714286 L81.96249771118167 491.8258928571431 C81.96249771118167 492.6435268034363 82.63147090774565 493.3125000000003 83.44910485403882 493.3125000000003 L86.42231913975313 493.3125000000003 C87.2399530860463 493.3125000000003 87.90892628261028 492.6435268034363 87.90892628261028 491.8258928571431 L87.90892628261028 490.339285714286 L119.1276762826105 490.339285714286 C119.94531022890365 490.339285714286 120.61428342546765 489.670312517722 120.61428342546765 488.8526785714288 L120.61428342546765 485.8794642857145 C120.61428342546765 485.06183033942136 119.94531022890365 484.39285714285734 119.1276762826105 484.39285714285734 Z M119.1276762826105 469.5267857142858 L111.69464056832473 469.5267857142858 L111.69464056832473 468.0401785714286 C111.69464056832473 467.2225446251354 111.02566737176073 466.55357142857144 110.20803342546756 466.55357142857144 L107.23481913975327 466.55357142857144 C106.41718519346009 466.55357142857144 105.74821199689612 467.2225446251354 105.74821199689612 468.0401785714286 L105.74821199689612 469.5267857142858 L74.5294619968959 469.5267857142858 C73.71182805060273 469.5267857142858 73.04285485403875 470.19575891084975 73.04285485403875 471.01339285714295 L73.04285485403875 473.9866071428572 C73.04285485403875 474.8042410891504 73.71182805060273 475.4732142857144 74.5294619968959 475.4732142857144 L105.74821199689612 475.4732142857144 L105.74821199689612 476.95982142857156 C105.74821199689612 477.7774553748647 106.41718519346009 478.4464285714287 107.23481913975327 478.4464285714287 L110.20803342546756 478.4464285714287 C111.02566737176073 478.4464285714287 111.69464056832473 477.7774553748647 111.69464056832473 476.95982142857156 L111.69464056832473 475.4732142857144 L119.1276762826105 475.4732142857144 C119.94531022890365 475.4732142857144 120.61428342546765 474.8042410891504 120.61428342546765 473.9866071428572 L120.61428342546765 471.01339285714295 C120.61428342546765 470.19575891084975 119.94531022890365 469.5267857142858 119.1276762826105 469.5267857142858 Z M119.1276762826105 454.6607142857142 L99.8017834254675 454.6607142857142 L99.8017834254675 453.17410714285705 C99.8017834254675 452.35647319656385 99.13281022890352 451.6874999999999 98.31517628261034 451.6874999999999 L95.34196199689605 451.6874999999999 C94.52432805060286 451.6874999999999 93.8553548540389 452.35647319656385 93.8553548540389 453.17410714285705 L93.8553548540389 454.6607142857142 L74.5294619968959 454.6607142857142 C73.71182805060273 454.6607142857142 73.04285485403875 455.3296872164521 73.04285485403875 456.14732142857133 L73.04285485403875 459.12053571428567 C73.04285485403875 459.93816966057886 73.71182805060273 460.60714285714283 74.5294619968959 460.60714285714283 L93.8553548540389 460.60714285714283 L93.8553548540389 462.09375 C93.8553548540389 462.9113839462932 94.52432805060286 463.58035714285717 95.34196199689605 463.58035714285717 L98.31517628261034 463.58035714285717 C99.13281022890352 463.58035714285717 99.8017834254675 462.9113839462932 99.8017834254675 462.09375 L99.8017834254675 460.60714285714283 L119.1276762826105 460.60714285714283 C119.94531022890365 460.60714285714283 120.61428342546765 459.93816966057886 120.61428342546765 459.12053571428567 L120.61428342546765 456.14732142857133 C120.61428342546765 455.3296874822782 119.94531022890365 454.6607142857142 119.1276762826105 454.6607142857142 Z "></path>
        </defs>
        <g style="mix-blend-mode:normal">
            <use xmlns:xlink="http://www.w3.org/1999/xlink" xlink:href="#s-Path_8-7805d" fill="#FFFFFF" fill-opacity="1.0"></use>
        </g>
    </g>
    <g>
        <text x="42.2857142857145" y="541.63671875" font-family="Arial" font-weight="400" font-style="normal" font-size="16.0" fill="#FFFFFF" id="s-Paragraph_5-7805d">
            <tspan font-family="Arial" font-weight="400" font-style="normal" font-size="16.0" fill="#FFFFFF" dy="0.0" x="42.2857142857145">QUANTITIES</tspan>
        </text>
    </g>
</svg>