<?xml version="1.0" encoding="UTF-8"?>
<svg xmlns="http://www.w3.org/2000/svg" width="201.85664230821703" height="260.9999953049838" viewBox="31.999999999999886 144.000000000004 201.85664230821703 260.9999953049838" preserveAspectRatio="none">
  <g>
    <defs>
      <path id="s-Path_60-3c46d" d="M101.08880194641335 257.7692307692307 L90.45975549311898 311.30769230769226 L47.94356967994156 311.30769230769226 L53.25809290658873 331.38461538461536 L87.35574896807587 340.92626493710736 C95.66577809662242 343.25168497216123 104.31776209956516 339.0767371650426 109.26569426852899 330.3537906866807 L127.66141807964925 297.9230769230769 L127.66141807964925 257.7692307692307 Z "></path>
    </defs>
    <g>
      <use xmlns:xlink="http://www.w3.org/1999/xlink" xlink:href="#s-Path_60-3c46d" fill="#718799" fill-opacity="1.0" filter="none"></use>
    </g>
  </g>
  <g>
    <defs>
      <path id="s-Path_61-3c46d" d="M233.85663303404073 184.48009364880036 C233.85748644180603 188.5837038710897 232.67423093789364 192.55112418791072 230.52841271130143 195.63951685337162 L205.05201683955204 232.30499915434746 C195.80563707981787 245.60240824250974 179.99628561007353 248.24479624734573 168.31537554218585 238.4451915896854 L165.6514706227792 236.2116338335549 L159.45330849452063 230.99999920221458 L143.50973881457912 257.7692299714453 L100.9935530014016 257.7692299714453 L116.93712268134315 210.92307612529152 L95.67902977475443 210.92307612529152 L74.42093686816568 237.69230689452226 L74.42093686816568 253.03442240678328 C74.4221257562231 255.63037845218867 72.72673650646931 257.7677594168782 70.66522509172698 257.76925652289367 C69.66716588964555 257.7699813311216 68.70887916791173 257.2699827661488 68.00370972616608 256.38057625293686 L63.791890414871304 251.07692227913765 L53.16284396157694 264.461537663753 L42.75307475810372 246.97788413671327 C39.59153077059928 241.6759827794919 40.013191965495096 234.17414731532375 43.73626156770426 229.48586503358968 L78.82528186328817 185.2999037504195 C82.80932574918945 180.2835670157544 88.21819182771056 177.46217856585102 93.8521627323647 177.46153846153834 L152.81015477798195 177.46153846153834 L186.02592494452682 210.92307692307676 L201.96949462446838 190.8461538461537 L201.96949462446838 175.5040383338927 C201.96834061629391 172.90806410096644 203.6637704527708 170.7707043129276 205.7252963106631 170.76925112936743 C206.723318508273 170.76854761675094 207.68156652416883 171.26852598644902 208.38672176646782 172.1578844877389 L212.59854107776277 177.46153846153834 L223.22758753105717 164.07692307692298 L229.91729032186612 172.50086512932398 C232.43954334389025 175.67644023829058 233.85763766692884 179.9887518504891 233.8566343011218 184.4800956432635 Z "></path>
    </defs>
    <g>
      <use xmlns:xlink="http://www.w3.org/1999/xlink" xlink:href="#s-Path_61-3c46d" fill="#EAD8D8" fill-opacity="1.0" filter="none"></use>
    </g>
  </g>
  <g>
    <defs>
      <path id="s-Path_62-3c46d" d="M182.79959655611387 207.57692347581556 L165.74662010192648 236.2116346313402 L159.54855743953246 230.99999999999986 L143.6049877595909 257.7692307692306 L101.08880194641347 257.7692307692306 L117.032371626355 210.9230769230768 L106.40332517306064 210.9230769230768 L106.40332517306064 177.46153846153834 L152.90540340622348 177.46153846153834 Z "></path>
    </defs>
    <g>
      <use xmlns:xlink="http://www.w3.org/1999/xlink" xlink:href="#s-Path_62-3c46d" fill="#E2208A" fill-opacity="1.0" filter="none"></use>
    </g>
  </g>
  <g>
    <defs>
      <path id="s-Path_63-3c46d" d="M154.23403484642574 378.23077082633966 L177.34920739335774 325.8368024275852 C179.61657475889393 320.69747922941224 180.80664958032594 314.9141938599261 180.8066503461211 309.03501914097706 C180.80665064151793 297.8712121963045 176.51557686576308 287.3711273772042 169.3014654426123 280.88229469669363 L143.60498775959087 257.7692307692307 L101.08880194641347 257.7692307692307 C101.08880167449786 274.0176319832368 108.72353643593269 288.81134037058916 120.51467283875121 295.4104427356238 L148.91951098623804 311.3076939032627 L132.97594130629653 384.9230785186474 Z "></path>
    </defs>
    <g>
      <use xmlns:xlink="http://www.w3.org/1999/xlink" xlink:href="#s-Path_63-3c46d" fill="#8098AB" fill-opacity="1.0" filter="none"></use>
    </g>
  </g>
  <g>
    <defs>
      <path id="s-Path_64-3c46d" d="M53.258092906588615 331.38461538461524 L42.62904645329425 364.8461538461537 L31.999999999999886 364.8461538461537 L31.999999999999886 311.30769230769215 L47.94356967994143 311.30769230769215 Z "></path>
    </defs>
    <g>
      <use xmlns:xlink="http://www.w3.org/1999/xlink" xlink:href="#s-Path_64-3c46d" fill="#E2208A" fill-opacity="1.0" filter="none"></use>
    </g>
  </g>
  <g>
    <defs>
      <path id="s-Path_65-3c46d" d="M132.97594130629648 384.9230769230768 L154.2340342128852 378.23076923076906 L180.8066503461211 398.30769230769215 L180.8066503461211 404.9999999999998 L132.97594130629648 404.9999999999998 Z "></path>
    </defs>
    <g>
      <use xmlns:xlink="http://www.w3.org/1999/xlink" xlink:href="#s-Path_65-3c46d" fill="#E2208A" fill-opacity="1.0" filter="none"></use>
    </g>
  </g>
  <g>
    <defs>
      <path id="s-Path_76-3c46d" d="M159.76596843373784 210.90991140780295 C161.8276921302375 208.3139137725425 161.82776710214128 204.04132699101842 159.76613451259655 201.44521462451706 L147.58071716831066 186.10074085907047 C145.5189275525848 183.50488125210444 142.12613685804982 183.50488125210444 140.06434724232398 186.10074085907047 L127.87896284214605 201.44521462451706 C125.81733025260132 204.04132699101842 125.81740522450508 208.3139137725425 127.87912892100476 210.90991140780295 C129.94075080660835 213.50577792879545 133.33349925883863 213.5056533132697 135.39500088412845 210.9096353501024 L138.5080093866781 206.98944031618538 L138.5080093866781 230.9866673247115 L149.13705583997248 230.9866673247115 L149.13705583997248 206.98944031618538 L152.25009095122476 210.9096437268475 C154.31159257651458 213.5056616900148 157.70434102874486 213.50578630554054 159.76596291434845 210.90991978454804 Z "></path>
    </defs>
    <g>
      <use xmlns:xlink="http://www.w3.org/1999/xlink" xlink:href="#s-Path_76-3c46d" fill="#9A2FAE" fill-opacity="1.0" filter="none"></use>
    </g>
  </g>
  <g>
    <defs>
      <path id="s-Path_77-3c46d" d="M148.91951098623804 190.84615384615364 C143.08858860761285 190.84615384615364 138.2904645329437 184.8041212339803 138.2904645329437 177.4615384615383 L138.2904645329437 170.76923076923066 L143.60498775959087 164.07692307692298 L159.54855743953243 164.07692307692298 L159.54855743953243 177.4615384615383 C159.54855743953243 184.8041212339803 154.75043336486328 190.84615384615364 148.91951098623804 190.84615384615364 Z "></path>
    </defs>
    <g>
      <use xmlns:xlink="http://www.w3.org/1999/xlink" xlink:href="#s-Path_77-3c46d" fill="#FFCEB6" fill-opacity="1.0" filter="none"></use>
    </g>
  </g>
  <g>
    <defs>
      <path id="s-Path_78-3c46d" d="M159.54855759791758 164.07692307692642 L162.66173208808829 160.15666142794137 C164.07069037516544 158.38243140379552 164.86307958561497 155.97349332775906 164.86308066617966 153.46435373563367 C164.8630879647322 148.2723627224627 161.47030117559672 143.99999562345025 157.34721567197766 144.00000000000335 L148.9195109862381 144.00000000000335 C143.08858860761285 144.00000000000335 138.2904645329437 150.0420326121767 138.2904645329437 157.38461538461874 L138.2904645329437 170.7692307692341 L143.60498775959087 164.07692307692642 Z "></path>
    </defs>
    <g>
      <use xmlns:xlink="http://www.w3.org/1999/xlink" xlink:href="#s-Path_78-3c46d" fill="#E2208A" fill-opacity="1.0" filter="none"></use>
    </g>
  </g>
</svg>