<?xml version="1.0" encoding="UTF-8"?>
<svg xmlns="http://www.w3.org/2000/svg" width="202.59715856866816" height="231.99125488194107" viewBox="216.48320565862676 179.42187249999728 202.59715856866816 231.99125488194107" preserveAspectRatio="none">
  <g>
    <defs>
      <path id="s-Path_4-3c46d" d="M360.7365814272241 356.53748242633844 L276.952687529386 356.53748242633844 L278.82331668547386 365.68341555040735 L355.5399751416502 365.68341555040735 C359.9417412745602 365.68341555040735 363.20426709525884 369.7707901231494 362.22879613496696 374.0630910347033 L360.6519800456009 381.0014242849217 C365.9940607815061 383.594582122922 369.67758548678074 389.07071062762725 369.67758548678074 395.4076982036313 C369.67758548678074 404.3255545244741 362.38398988805204 411.5399810626263 353.436694366659 411.411366160013 C344.9129705185203 411.28875349686234 337.9028990123603 404.371569799893 337.67282154498554 395.84984716104304 C337.547064965211 391.1948528237739 339.41197790151205 386.9757197980607 342.47529372243514 383.9749961451354 L282.5557115648449 383.9749961451354 C285.5215658767337 386.8805470597153 287.36418737016066 390.9279026255134 287.36418737016066 395.4076982036313 C287.36418737016066 404.50018470250626 279.7822088451965 411.8220757978659 270.5956911313351 411.3953608468238 C262.43866176463894 411.01666203977686 255.80471675384518 404.4258739304564 255.37600113865443 396.27113142645874 C255.04503268590776 389.9735847363279 258.35871854167186 384.4228603513031 263.3932691232149 381.5273160283069 L243.31594531715186 283.3700174337871 L223.34265550167842 283.3700174337871 C219.5542384827346 283.3700174337871 216.48320565862676 280.29898488224933 216.48320565862676 276.51056759073543 L216.48320565862676 271.93760102870095 C216.48320565862676 268.14918400975716 219.5542384827346 265.0781511856493 223.34265550167842 265.0781511856493 L252.64651084971598 265.0781511856493 C255.90503534211734 265.0781511856493 258.7136944190623 267.37063645911246 259.3667711625916 270.5628531086286 L261.9865073059236 283.3700174337871 L374.24769115359663 283.3700174337871 C378.6494572865066 283.3700174337871 381.91198310720523 287.4573920065292 380.9365121469134 291.74969291808304 L367.4253969691399 351.198258224531 C366.7157390448704 354.32130913421383 363.93936234664125 356.53748242633844 360.7365814272241 356.53748242633844 Z M331.6730870693134 319.95374993006277 L319.37495330440186 319.95374993006277 L319.37495330440186 302.8051253224336 C319.37495330440186 300.91105977595157 317.839293929358 299.3754004009077 315.945228382876 299.3754004009077 L309.08577853982433 299.3754004009077 C307.1917129933423 299.3754004009077 305.6560536182985 300.91105977595157 305.6560536182985 302.8051253224336 L305.6560536182985 319.95374993006277 L293.35791767282655 319.95374993006277 C290.30231858251824 319.95374993006277 288.7720896205308 323.64813518888 290.93281644102285 325.8085763559623 L310.0904022295465 344.966162144486 C311.42970977433276 346.3054696892723 313.60129742093756 346.3054696892723 314.9408908917037 344.966162144486 L334.09847668022735 325.8085763559623 C336.2589175747396 323.64813546145007 334.7286886127521 319.95374993006277 331.67308952244383 319.95374993006277 Z "></path>
    </defs>
    <g transform="rotate(12.0 298.7965811286266 338.2456316122757)">
      <use xmlns:xlink="http://www.w3.org/1999/xlink" xlink:href="#s-Path_4-3c46d" fill="#FFFFFF" fill-opacity="1.0" filter="none"></use>
    </g>
  </g>
  <g>
    <defs>
      <path id="s-Path_13-3c46d" d="M346.9583440212481 260.4385006161398 C345.0854086451984 258.5661306902941 342.0036638994776 258.5661306902941 340.13072852342793 260.4385006161398 L318.8849665283832 281.6842626111845 C316.9796596131536 283.52447474828244 316.9260947049268 286.6065711937751 318.76630684202473 288.51187810900467 C320.60651897912265 290.4171850242342 323.6886154246153 290.470749932461 325.5939223398449 288.6305377953631 C325.634159940809 288.59167491134684 325.6737191421871 288.5521157099688 325.71258202620334 288.51187810900467 L346.9583440212481 267.2661161139599 C348.8307139470938 265.39318073791026 348.8307139470938 262.31143599218944 346.9583440212481 260.4385006161398 Z M343.9447050925655 266.18391009391775 C342.7617024129988 267.36630918688587 341.6800999795552 267.5522095997376 340.81035160709285 267.7012920359292 C340.02932919828373 267.83588862399836 339.46438411468824 267.932460637822 338.7159542309817 268.68089052152857 C337.9675243472751 269.4293204052351 337.8709523334515 269.99426491321873 337.73635563026 270.7758915993607 C337.5866695786891 271.64503638522444 337.4013727236554 272.727242520389 336.2183701016499 273.90964138311233 C335.0353674796443 275.09204024583573 333.9537649886396 275.2779408889322 333.08462031789827 275.4276269117225 C332.3029934015115 275.5616202585601 331.7386524801265 275.6581922723837 330.9902225964199 276.4066221560903 C330.2417927127134 277.15505203979683 330.1452206988898 277.7193929611818 330.01062399569827 278.50101976244616 C329.8615415163357 279.3701645483099 329.6762446756923 280.45237068347444 328.49324205368674 281.6347695461978 C327.3102394316812 282.81716840892113 326.2280334692002 283.0036726386163 325.3588885682141 283.15275507480794 C324.5778654686708 283.2873518931218 324.0129213060543 283.3839239069454 323.2644909618582 284.132353790652 C322.88816425118426 284.50532951060734 322.2715815223882 284.50257206192305 321.8986058024329 284.12624535124905 C321.5279272808639 283.75223647808093 321.5279272808639 283.1404775043948 321.8986058024329 282.7664686312267 C323.08160848199964 281.5840695382586 324.1632109154432 281.3981691254068 325.0323555861845 281.2490866892152 C325.8170002053197 281.1150935294514 326.3783228483444 281.0185218897755 327.1273566640167 280.2694880884935 C327.87639047968906 279.52045428721146 327.9723585615469 278.956717283402 328.1063516781398 278.1750904821376 C328.2560377297106 277.30594569627385 328.44133458474437 276.2237395611093 329.6243372067499 275.04134069838597 C330.80733982875546 273.8589418356626 331.8889423197602 273.67304119256613 332.7580869905015 273.5239587563745 C333.5427316096367 273.38996559661075 334.1040542526614 273.29279038472646 334.85248459685744 272.5443601556528 C335.60091494105353 271.7959299265791 335.69748649438765 271.2309857639626 335.8326867841778 270.4493590778206 C335.9817692635403 269.5802142919569 336.16706610418373 268.49800815679237 337.35006872618925 267.31560929406896 C338.5330713481948 266.1332104313456 339.61467383919955 265.9467062016505 340.4838185099409 265.79762376545887 C341.2654450809605 265.66302660177786 341.8297860023455 265.56705875016473 342.57882004826257 264.8180247042477 C342.9551467589365 264.4450489842924 343.57172948773257 264.4478064329767 343.9447052076879 264.8241331436506 C344.3153837292569 265.19814201681874 344.3153837292569 265.8099009905049 343.9447052076879 266.183909863673 Z M319.3678251009104 278.46963348956194 L336.9160997471725 260.9213588432999 L336.21957675679647 260.22423226632526 C334.71064479692114 258.71530030644993 332.36576462337274 258.615107233524 330.9811685096345 259.99970318896897 L318.4461694321892 272.53470311544174 C317.0615734335733 273.9192991140576 317.1623700930979 276.26417940272836 318.67069850954545 277.7725076608827 Z M346.47548567896564 270.4807440843588 L328.9272112629483 288.02901953647745 L329.6237342533243 288.72614611345205 C331.1326662131996 290.23507807332743 333.47754638674803 290.3352711462533 334.8621425004863 288.95067519080834 L347.3971416354928 276.4156760558019 C348.78173763410865 275.031080057186 348.6809409745841 272.6861997685153 347.1726125581365 271.1772678086399 Z "></path>
    </defs>
    <g>
      <use xmlns:xlink="http://www.w3.org/1999/xlink" xlink:href="#s-Path_13-3c46d" fill="#FFFFFF" fill-opacity="1.0" filter="none"></use>
    </g>
  </g>
  <g>
    <defs>
      <path id="s-Path_12-3c46d" d="M347.91333398481044 213.1541385497321 L347.91333398481044 228.951154581101 C347.91333398481044 230.14041857209895 348.8782085435446 231.10529313083313 350.06747253454256 231.10529313083313 L352.2216110842747 231.10529313083313 L352.2216110842747 210.99999999999997 L350.06747253454256 210.99999999999997 C348.8782085435446 210.99999999999997 347.91333398481044 211.96487455873415 347.91333398481044 213.1541385497321 Z M353.65770345076277 231.10529313083313 L368.0186271156436 231.10529313083313 L368.0186271156436 210.99999999999997 L353.65770345076277 210.99999999999997 L353.65770345076277 231.10529313083313 Z M356.52988818373893 219.9755772905505 C356.52988818373893 219.77811458587848 356.691448570689 219.61655419892847 356.88891127536095 219.61655419892847 L359.4020729167151 219.61655419892847 L359.4020729167151 217.10339255757432 C359.4020729167151 216.90592985290232 359.56363330366514 216.7443694659523 359.7610960083371 216.7443694659523 L361.91523455806924 216.7443694659523 C362.1126972627412 216.7443694659523 362.27425764969126 216.90592985290232 362.27425764969126 217.10339255757432 L362.27425764969126 219.61655419892847 L364.7874192910454 219.61655419892847 C364.9848819957174 219.61655419892847 365.14644238266743 219.77811458587848 365.14644238266743 219.9755772905505 L365.14644238266743 222.1297158402826 C365.14644238266743 222.32717854495462 364.9848819957174 222.48873893190463 364.7874192910454 222.48873893190463 L362.27425764969126 222.48873893190463 L362.27425764969126 225.00190057325878 C362.27425764969126 225.1993632779308 362.1126972627412 225.3609236648808 361.91523455806924 225.3609236648808 L359.7610960083371 225.3609236648808 C359.56363330366514 225.3609236648808 359.4020729167151 225.1993632779308 359.4020729167151 225.00190057325878 L359.4020729167151 222.48873893190463 L356.88891127536095 222.48873893190463 C356.691448570689 222.48873893190463 356.52988818373893 222.32717854495462 356.52988818373893 222.1297158402826 L356.52988818373893 219.9755772905505 Z M371.6088580318638 210.99999999999997 L369.4547194821317 210.99999999999997 L369.4547194821317 231.10529313083313 L371.6088580318638 231.10529313083313 C372.7981220228617 231.10529313083313 373.7629965815959 230.14041857209895 373.7629965815959 228.951154581101 L373.7629965815959 213.1541385497321 C373.7629965815959 211.96487455873415 372.7981220228617 210.99999999999997 371.6088580318638 210.99999999999997 Z "></path>
    </defs>
    <g>
      <use xmlns:xlink="http://www.w3.org/1999/xlink" xlink:href="#s-Path_12-3c46d" fill="#FFFFFF" fill-opacity="1.0" filter="none"></use>
    </g>
  </g>
  <g>
    <defs>
      <path id="s-Path_14-3c46d" d="M414.11830964286366 187.69196357142778 L413.29130053572067 187.69196357142778 L407.6686724316276 180.6634199457567 C407.0411450349679 179.87929688961304 406.0896126676156 179.4219979125154 405.08530216532745 179.42187249999728 L394.0287078829268 179.42187249999728 C392.67603110811245 179.42187249999728 391.45981080442886 180.24526345807053 390.957402905918 181.50128350010917 L388.48102732142917 187.80877832388072 C387.05650416197966 188.1778311063954 386.0 189.46021276566486 386.0 191.0 L386.0 196.78906375000136 C386.0 197.24598628958486 386.37008656755955 197.61607285714442 386.82700910714306 197.61607285714442 L389.3080364285722 197.61607285714442 C389.3080364285722 200.35657430960063 391.5295896189743 202.57812750000272 394.2700910714305 202.57812750000272 C397.0105925238867 202.57812750000272 399.2321457142888 200.35657430960063 399.2321457142888 197.61607285714442 L405.8482185714332 197.61607285714442 C405.8482185714332 200.35657430960063 408.0697717618353 202.57812750000272 410.8102732142915 202.57812750000272 C413.5507746667477 202.57812750000272 415.7723278571498 200.35657430960063 415.7723278571498 197.61607285714442 L418.25335517857894 197.61607285714442 C418.71027771816244 197.61607285714442 419.080364285722 197.24598628958486 419.080364285722 196.78906375000136 L419.080364285722 192.6540182142861 C419.080364285722 189.9135167618299 416.8588110953199 187.69196357142778 414.11830964286366 187.69196357142778 Z M394.2700910714305 200.09710017857358 C392.9019079152921 200.09710017857358 391.78906375000133 198.98425601328282 391.78906375000133 197.61607285714442 C391.78906375000133 196.247889701006 392.9019079152921 195.13504553571528 394.2700910714305 195.13504553571528 C395.6382742275689 195.13504553571528 396.75111839285967 196.247889701006 396.75111839285967 197.61607285714442 C396.75111839285967 198.98425601328282 395.6382742275689 200.09710017857358 394.2700910714305 200.09710017857358 Z M397.9916320535742 187.69196357142778 L392.04388594691375 187.69196357142778 L394.0287078829268 182.7299089285695 L397.9916320535742 182.7299089285695 L397.9916320535742 187.69196357142778 Z M400.4726593750034 187.69196357142778 L400.4726593750034 182.7299089285695 L405.0853025596761 182.7299089285695 L409.0549464317022 187.69196357142778 L400.4726593750034 187.69196357142778 Z M410.8102732142915 200.09710017857358 C409.4420900581531 200.09710017857358 408.32924589286233 198.98425601328282 408.32924589286233 197.61607285714442 C408.32924589286233 196.247889701006 409.4420900581531 195.13504553571528 410.8102732142915 195.13504553571528 C412.1784563704299 195.13504553571528 413.29130053572067 196.247889701006 413.29130053572067 197.61607285714442 C413.29130053572067 198.98425601328282 412.1784563704299 200.09710017857358 410.8102732142915 200.09710017857358 Z "></path>
    </defs>
    <g>
      <use xmlns:xlink="http://www.w3.org/1999/xlink" xlink:href="#s-Path_14-3c46d" fill="#FFFFFF" fill-opacity="1.0" filter="none"></use>
    </g>
  </g>
  <g>
    <defs>
      <path id="s-Path_9-3c46d" d="M394.21433385926446 255.59624898380287 L392.9779045123056 254.35981963684404 C392.6364248965268 254.01834002106526 392.0829547811256 254.01834002106526 391.7414751653468 254.35981963684404 L391.123533629707 254.9777611724838 L389.54453190718823 253.39875944996498 C389.8521367513344 252.23445058118483 389.56420113383865 250.94556980684118 388.6512212114687 250.03258995611645 L386.1789087932303 247.56027753787808 C382.7652053952237 244.1465741398715 377.2299577571091 244.1465741398715 373.81570766657796 247.56027753787808 L378.7608789871566 250.03258995611645 L378.7608789871566 251.0570288034528 C378.7608789871566 251.9842142186993 379.1291305923071 252.8737003593959 379.78531783449296 253.52934122169117 L382.4701671322444 256.21419051944264 C383.38314698296915 257.1271703701674 384.67202765310145 257.4151060072028 385.83633662609293 257.1075012151622 L387.4153383486117 258.68650293768104 L386.79739681297195 259.3044444733208 C386.4559171971932 259.6459240890996 386.4559171971932 260.19939420450083 386.79739681297195 260.5408738202796 L388.0338261599308 261.7773031672385 C388.3753057757096 262.11878278301725 388.92877589111083 262.11878278301725 389.2702555068896 261.7773031672385 L394.21542682746826 256.8321318466598 C394.5558137095187 256.4911986107716 394.5558137095187 255.93772839115906 394.2143340927222 255.59624877538027 Z M378.54888812279455 254.76577056865003 C378.34673218764823 254.5636146335037 378.1751728229494 254.34015037762757 378.0107162274849 254.11286155370212 L364.0728844174386 267.1256929470079 C362.67582303003826 268.4304182171225 362.63812365127717 270.63282532629273 363.98929020905916 271.9845381206748 C365.34045676684116 273.3362509150569 367.5434102168228 273.29855164050707 368.84813538272607 271.90094391229536 L381.85878219437114 257.9647506166529 C381.64242070772946 257.8057577028568 381.42715195481617 257.6440329677662 381.23373792857615 257.4506189154733 L378.5488886308247 254.76576961772182 Z "></path>
    </defs>
    <g>
      <use xmlns:xlink="http://www.w3.org/1999/xlink" xlink:href="#s-Path_9-3c46d" fill="#FFFFFF" fill-opacity="1.0" filter="none"></use>
    </g>
  </g>
  <g>
    <defs>
      <path id="s-Path_11-3c46d" d="M362.0 249.04564766500118 L368.2131716097461 256.1240422092924 L371.85555788031814 255.8434144228985 L377.1041535160448 260.3411069246864 C377.322888267747 259.9233745663761 377.5758919891039 259.52130424639927 377.89066190382397 259.1546222551665 C378.20484494310807 258.78798542346874 378.5633695165663 258.4757912853569 378.94266590756183 258.1956494238659 L373.6940702029255 253.69795675847297 L373.4134424337812 250.05557071179078 L365.46684721602344 245.0 L362.0 249.04564766500118 Z M379.7978286333274 266.5671347506791 L387.1988363331701 272.9092982947359 C388.1185890565672 273.69746435183583 389.5037053786175 273.5907480130181 390.29245819489597 272.6709500827383 L393.1471902406683 269.3396120353609 C393.935898005044 268.4192271650479 393.82922688604646 267.03469777009354 392.90884202867056 266.24599017363505 L385.507834535468 259.9038263884388 C383.66769694175787 258.3269525669633 380.8980512247532 258.5403400247785 379.32117740327766 260.3804776184887 C377.74430358180206 262.2206152121988 377.95769103961726 264.9902609292035 379.7978286333274 266.5671347506791 Z "></path>
    </defs>
    <g>
      <use xmlns:xlink="http://www.w3.org/1999/xlink" xlink:href="#s-Path_11-3c46d" fill="#FFFFFF" fill-opacity="1.0" stroke-width="1.0" stroke="#9A2FAE" stroke-linecap="butt" filter="none"></use>
    </g>
  </g>
</svg>