<?xml version="1.0" encoding="UTF-8"?>
<svg xmlns="http://www.w3.org/2000/svg" width="140.0" height="26.0" viewBox="235.0 642.0 140.0 26.0" preserveAspectRatio="none">
    <g>
        <defs>
            <rect x="235.0" y="642.0" width="140.0" height="26.0" id="s-Rectangle_1-81e6e-path"></rect>
        </defs>
        <g style="mix-blend-mode:normal">
            <use xmlns:xlink="http://www.w3.org/1999/xlink" xlink:href="#s-Rectangle_1-81e6e-path" fill="#8501EC" fill-opacity="0.5"></use>
            <text text-anchor="middle" x="305.0" y="658.328125" font-family="SansSerif" font-weight="400" font-style="normal" font-size="12.0" fill="#FFFFFF" id="s-Rectangle_1-81e6e">
                <tspan font-family="SansSerif" font-weight="400" font-style="normal" font-size="12.0" fill="#FFFFFF" dy="0.0" x="305.0">PURCHASES</tspan>
            </text>
        </g>
    </g>
    <g>
        <defs>
            <path id="s-Path_5-81e6e" d="M253.5 646.0 C248.80547654628754 646.0 245.0 649.8054765462875 245.0 654.5 C245.0 659.1945234537125 248.80547654628754 663.0 253.5 663.0 C258.19452345371246 663.0 262.0 659.1945234537125 262.0 654.5 C262.0 649.8054765462875 258.19452345371246 646.0 253.5 646.0 Z M256.9665387868881 655.2513200044632 L252.71653878688812 659.5013200044632 C252.30163252726197 659.9162262640893 251.62893720716238 659.9162262640893 251.21389814466238 659.5013200044632 C250.79885908216238 659.086413744837 250.79899188503623 658.4137184247375 251.21389814466238 657.9986793622375 L254.71257788687944 654.4999996200204 L251.21389814466238 651.0013198778033 C250.79899188503623 650.5864136181772 250.79899188503623 649.9137182980776 251.21389814466238 649.4986792355776 C251.62880440428853 649.0836401730776 252.30149972438812 649.0836401730776 252.71653878688812 649.4986792355776 L256.9665387868881 653.7486792355776 C257.15885128080845 653.9409917294979 257.27771846577525 654.2066167294979 257.27771846577525 654.4999995566905 C257.27771846577525 654.793382383883 257.15885128080845 655.059007383883 256.9665387868881 655.2513198778033 Z "></path>
        </defs>
        <g style="mix-blend-mode:normal">
            <use xmlns:xlink="http://www.w3.org/1999/xlink" xlink:href="#s-Path_5-81e6e" fill="#FFFFFF" fill-opacity="1.0"></use>
        </g>
    </g>
</svg>