<?xml version="1.0" encoding="UTF-8"?>
<svg xmlns="http://www.w3.org/2000/svg" width="24.999998092651367" height="25.0" viewBox="315.0937499193291 54.49999945340649 24.999998092651367 25.0" preserveAspectRatio="none">
    <g>
        <defs>
            <path id="s-Path_10-32ba6" d="M332.33238643669387 66.99999976165883 L339.4396307635372 59.892755434815484 C340.31178983920387 59.020596359148854 340.31178983920387 57.60653393168295 339.4396307635372 56.7336645447522 L337.8600853185056 55.15411909972056 C336.98792624283897 54.281960024053944 335.57386381537304 54.281960024053944 334.7009944284423 55.15411909972056 L327.5937499661338 62.26136329109882 L320.4865056392905 55.15411896425546 C319.6143465636239 54.281959888588844 318.20028413615796 54.281959888588844 317.3274147492272 55.15411896425546 L315.74786923646303 56.733664273822 C314.8757101607964 57.60582334948863 314.8757101607964 59.019885776954524 315.74786923646303 59.89275516388528 L322.85511349557385 66.99999976165883 L315.74786923646303 74.10724463036259 C314.8757101607964 74.9794037060292 314.8757101607964 76.39346613349511 315.74786923646303 77.26633552042587 L317.32741468149464 78.8458809654575 C318.1995737571613 79.71804004112413 319.6143465636239 79.71804004112413 320.4865055715579 78.8458809654575 L327.5937499661338 71.73863623221885 L334.7009942929772 78.8458805590622 C335.57315336864383 79.71803963472881 336.9879261751064 79.71803963472881 337.8600851830405 78.8458805590622 L339.4396306280721 77.26633511403054 C340.3117897037387 76.39417603836394 340.3117897037387 74.98011361089803 339.4396306280721 74.10724422396727 L332.33238643669387 66.99999976165883 Z "></path>
        </defs>
        <g style="mix-blend-mode:normal">
            <use xmlns:xlink="http://www.w3.org/1999/xlink" xlink:href="#s-Path_10-32ba6" fill="#9A2FAE" fill-opacity="1.0"></use>
        </g>
    </g>
</svg>