<?xml version="1.0" encoding="UTF-8"?>
<svg xmlns="http://www.w3.org/2000/svg" width="13.0" height="13.0" viewBox="115.0 214.0 13.0 13.0" preserveAspectRatio="none">
    <g>
        <defs>
            <path id="s-Path_1-32ba6" d="M128.0 220.5 C128.0 224.0906470206476 125.08959880951912 227.0 121.5 227.0 C117.91040119048088 227.0 115.0 224.09064742057555 115.0 220.5 C115.0 216.91144960157334 117.91040119048088 214.0 121.5 214.0 C125.08959880951912 214.0 128.0 216.91144960157334 128.0 220.5 Z M121.67442537123156 216.1491935483871 C120.24607653771677 216.1491935483871 119.33508068515408 216.75088913209976 118.6197135833002 217.82027014609307 C118.52703616359541 217.95881449503284 118.5580422142821 218.14566329025453 118.69087285524415 218.24638706637967 L119.60032248641214 218.9359636652854 C119.73674385538024 219.0394132627595 119.93111483272045 219.01480237226332 120.03710678460136 218.88034673035145 C120.5053164704192 218.28648783458817 120.82635882352629 217.942118884575 121.53899996655602 217.942118884575 C122.07443748895199 217.942118884575 122.73672985405692 218.28672371708578 122.73672985405692 218.8059374377612 C122.73672985405692 219.19845356239426 122.41269961432103 219.4000321910266 121.8840241984975 219.696437483353 C121.26746789870724 220.0420645129296 120.45161290322581 220.47224380124 120.45161290322581 221.5483870967742 L120.45161290322581 221.65322580645162 C120.45161290322581 221.82691733491035 120.59243750379932 221.96774193548387 120.76612903225806 221.96774193548387 L122.23387096774194 221.96774193548387 C122.40756249620068 221.96774193548387 122.54838709677419 221.82691733491035 122.54838709677419 221.65322580645162 L122.54838709677419 221.61828830790134 C122.54838709677419 220.87230847199118 124.72866524419477 220.8412500182467 124.72866524419477 218.82258065141016 C124.72866524419477 217.30236697052754 123.15175997826361 216.14919355463596 121.67442537123156 216.14919355463596 Z M121.5 222.6491935483871 C120.83519153825699 222.6491935483871 120.29435483870968 223.1900302479344 120.29435483870968 223.8548387096774 C120.29435483870968 224.51962097614043 120.83519153825699 225.06048387096774 121.5 225.06048387096774 C122.16480846174302 225.06048387096774 122.70564516129032 224.51962097614043 122.70564516129032 223.8548387096774 C122.70564516129032 223.1900302479344 122.16480846174302 222.6491935483871 121.5 222.6491935483871 Z "></path>
        </defs>
        <g style="mix-blend-mode:normal">
            <use xmlns:xlink="http://www.w3.org/1999/xlink" xlink:href="#s-Path_1-32ba6" fill="#9A2FAE" fill-opacity="1.0"></use>
        </g>
    </g>
</svg>