<?xml version="1.0" encoding="UTF-8"?>
<svg xmlns="http://www.w3.org/2000/svg" width="246.0" height="385.0" viewBox="68.0 96.0 246.0 385.0" preserveAspectRatio="none">
    <g>
        <defs>
            <path id="s-Path_7-32ba6" d="M216.0 425.0 C216.0 428.3144434036747 213.3134758241715 431.0 210.0 431.0 C206.6865241758285 431.0 204.0 428.31444377283896 204.0 425.0 C204.0 421.68749193991385 206.6865241758285 419.0 210.0 419.0 C213.3134758241715 419.0 216.0 421.68749193991385 216.0 425.0 Z M210.16100803498298 420.98387096774195 C208.84253218866164 420.98387096774195 208.00161294014222 421.5392822757844 207.3412740768925 422.5264032117782 C207.25572568947268 422.65429030310725 207.28434665933733 422.8267661140811 207.4069595586869 422.9197419074274 L208.2464515259189 423.5562741525712 C208.37237894342792 423.65176608870104 208.55179830712657 423.6290483436277 208.64963703193973 423.50493544340134 C209.08183058807927 422.95675800115833 209.37817737556273 422.6388789703769 210.03599996912862 422.6388789703769 C210.53024998980183 422.6388789703769 211.14159678836023 422.9569757388484 211.14159678836023 423.43624994254884 C211.14159678836023 423.7985725191332 210.84249195168096 423.9846450994092 210.35448387553615 424.25824998463355 C209.78535498342205 424.5772903196273 209.03225806451613 424.9743788934523 209.03225806451613 425.96774193548384 L209.03225806451613 426.06451612903226 C209.03225806451613 426.2248467706865 209.16225000350707 426.35483870967744 209.32258064516128 426.35483870967744 L210.67741935483872 426.35483870967744 C210.83774999649293 426.35483870967744 210.96774193548387 426.2248467706865 210.96774193548387 426.06451612903226 L210.96774193548387 426.0322661303705 C210.96774193548387 425.3436693587611 212.98030637925672 425.3150000168431 212.98030637925672 423.451612908994 C212.98030637925672 422.04833874202546 211.52470151839717 420.98387097351014 210.16100803498298 420.98387097351014 Z M210.0 426.98387096774195 C209.38633065069877 426.98387096774195 208.88709677419354 427.4831048442471 208.88709677419354 428.0967741935484 C208.88709677419354 428.71041936259115 209.38633065069877 429.2096774193548 210.0 429.2096774193548 C210.61366934930123 429.2096774193548 211.11290322580646 428.71041936259115 211.11290322580646 428.0967741935484 C211.11290322580646 427.4831048442471 210.61366934930123 426.98387096774195 210.0 426.98387096774195 Z "></path>
        </defs>
        <g style="mix-blend-mode:normal">
            <use xmlns:xlink="http://www.w3.org/1999/xlink" xlink:href="#s-Path_7-32ba6" fill="#9A2FAE" fill-opacity="1.0"></use>
        </g>
    </g>
    <g>
        <defs>
            <path id="s-Path_9-32ba6" d="M286.0 466.0 C286.0 469.3144434036747 283.3134758241715 472.0 280.0 472.0 C276.6865241758285 472.0 274.0 469.31444377283896 274.0 466.0 C274.0 462.68749193991385 276.6865241758285 460.0 280.0 460.0 C283.3134758241715 460.0 286.0 462.68749193991385 286.0 466.0 Z M280.161008034983 461.98387096774195 C278.84253218866166 461.98387096774195 278.00161294014225 462.5392822757844 277.3412740768925 463.5264032117782 C277.2557256894727 463.65429030310725 277.2843466593373 463.8267661140811 277.4069595586869 463.9197419074274 L278.24645152591887 464.5562741525712 C278.3723789434279 464.65176608870104 278.55179830712655 464.6290483436277 278.64963703193973 464.50493544340134 C279.08183058807924 463.95675800115833 279.37817737556276 463.6388789703769 280.0359999691286 463.6388789703769 C280.53024998980186 463.6388789703769 281.14159678836023 463.9569757388484 281.14159678836023 464.43624994254884 C281.14159678836023 464.7985725191332 280.8424919516809 464.9846450994092 280.3544838755362 465.25824998463355 C279.78535498342205 465.5772903196273 279.03225806451616 465.9743788934523 279.03225806451616 466.96774193548384 L279.03225806451616 467.06451612903226 C279.03225806451616 467.2248467706865 279.16225000350704 467.35483870967744 279.3225806451613 467.35483870967744 L280.6774193548387 467.35483870967744 C280.83774999649296 467.35483870967744 280.96774193548384 467.2248467706865 280.96774193548384 467.06451612903226 L280.96774193548384 467.0322661303705 C280.96774193548384 466.3436693587611 282.9803063792567 466.3150000168431 282.9803063792567 464.451612908994 C282.9803063792567 463.04833874202546 281.5247015183972 461.98387097351014 280.161008034983 461.98387097351014 Z M280.0 467.98387096774195 C279.38633065069877 467.98387096774195 278.88709677419354 468.4831048442471 278.88709677419354 469.0967741935484 C278.88709677419354 469.71041936259115 279.38633065069877 470.2096774193548 280.0 470.2096774193548 C280.61366934930123 470.2096774193548 281.11290322580646 469.71041936259115 281.11290322580646 469.0967741935484 C281.11290322580646 468.4831048442471 280.61366934930123 467.98387096774195 280.0 467.98387096774195 Z "></path>
        </defs>
        <g style="mix-blend-mode:normal">
            <use xmlns:xlink="http://www.w3.org/1999/xlink" xlink:href="#s-Path_9-32ba6" fill="#9A2FAE" fill-opacity="1.0"></use>
        </g>
    </g>
    <g>
        <defs>
            <ellipse cx="191.4100332340426" cy="166.41003323404217" rx="69.4100332340426" ry="69.41003323404217" id="s-Ellipse_3-32ba6-path"></ellipse>
        </defs>
        <g style="mix-blend-mode:normal">
            <use xmlns:xlink="http://www.w3.org/1999/xlink" xlink:href="#s-Ellipse_3-32ba6-path" fill="none" stroke-width="2.0" stroke="#9A2FAE"></use>
        </g>
    </g>
    <g>
        <defs>
            <path id="s-Path_3-32ba6" d="M217.28571410568406 154.21875015167257 L217.28571410568406 183.06696433611984 C217.28571410568406 185.72140071073045 215.1321147828868 187.87500003352773 212.4776784082762 187.87500003352773 L170.8080356974079 187.87500003352773 C168.15359932279728 187.87500003352773 166.0 185.72140071073045 166.0 183.06696433611984 L166.0 154.21875015167257 C166.0 151.56431377706198 168.15359932279728 149.41071445426468 170.8080356974079 149.41071445426468 L179.62276780932234 149.41071445426468 L180.8548269758885 146.1152065004897 C181.55599884842715 144.2420758502862 183.348995455708 143.0 185.3523438540155 143.0 L197.92335385452984 143.0 C199.92670206178312 143.0 201.71969886011814 144.2420758502862 202.42087073265677 146.1152065004897 L203.66294629636172 149.41071445426468 L212.4776784082762 149.41071445426468 C215.1321147828868 149.41071445426468 217.28571410568406 151.56431377706198 217.28571410568406 154.21875015167257 Z M203.66294629636172 168.6428572438962 C203.66294629636172 162.01177498357455 198.27393969527208 156.62276800037657 191.64285705284203 156.62276800037657 C185.011774410412 156.62276800037657 179.62276780932234 162.0117746014662 179.62276780932234 168.6428572438962 C179.62276780932234 175.27393988632627 185.011774410412 180.66294648741587 191.64285705284203 180.66294648741587 C198.27393969527208 180.66294648741587 203.66294629636172 175.27393988632627 203.66294629636172 168.6428572438962 Z M200.45758916475648 168.6428572438962 C200.45758916475648 173.50097664648547 196.50097645543124 177.45758935581065 191.64285705284203 177.45758935581065 C186.78473765025282 177.45758935581065 182.82812494092758 173.50097664648547 182.82812494092758 168.6428572438962 C182.82812494092758 163.78473784130702 186.78473765025282 159.82812513198175 191.64285705284203 159.82812513198175 C196.50097645543124 159.82812513198175 200.45758916475648 163.78473784130702 200.45758916475648 168.6428572438962 Z "></path>
        </defs>
        <g style="mix-blend-mode:normal">
            <use xmlns:xlink="http://www.w3.org/1999/xlink" xlink:href="#s-Path_3-32ba6" fill="#9A2FAE" fill-opacity="1.0" stroke-width="2.0" stroke="#FFFFFF" stroke-linecap="butt"></use>
        </g>
    </g>
    <g>
        <text x="163.0" y="144.0458984375" font-family="Arial" font-weight="400" font-style="normal" font-size="20.0" fill="#9A2FAE" id="s-Paragraph_17-32ba6">
            <tspan font-family="Arial" font-weight="400" font-style="normal" font-size="20.0" fill="#9A2FAE" dy="0.0" x="163.0">*</tspan>
        </text>
    </g>
    <g>
        <text x="70.0" y="262.34130859375" font-family="SansSerif" font-weight="400" font-style="normal" font-size="18.0" fill="#673FB4" id="s-Paragraph_6-32ba6">
            <tspan font-family="SansSerif" font-weight="400" font-style="normal" font-size="18.0" fill="#673FB4" dy="0.0" x="70.0">Name:</tspan>
        </text>
    </g>
    <g>
        <text x="88.0" y="292.0458984375" font-family="Arial" font-weight="400" font-style="normal" font-size="16.0" fill="#999999" id="s-Paragraph_13-32ba6">
            <tspan font-family="Arial" font-weight="400" font-style="normal" font-size="16.0" fill="#999999" dy="0.0" x="88.0">name</tspan>
            <tspan font-family="Arial" font-weight="400" font-style="normal" font-size="18.0" fill="#333333" dy="0.0"></tspan>
            <tspan font-family="Arial" font-weight="400" font-style="normal" font-size="20.0" fill="#9A2FAE" dy="0.0">*</tspan>
        </text>
    </g>
    <g>
        <defs>
            <rect x="69.5" y="271.5" width="244.0" height="39.0" id="s-Input-32ba6-path"></rect>
        </defs>
        <g style="mix-blend-mode:normal">
            <use xmlns:xlink="http://www.w3.org/1999/xlink" xlink:href="#s-Input-32ba6-path" fill="#FFFFFF" fill-opacity="1.0" stroke-width="1.0" stroke="#9A2FAE"></use>
        </g>
    </g>
    <g>
        <text x="84.0" y="295.34130859375" font-family="Arial" font-weight="400" font-style="normal" font-size="18.0" fill="#999999" id="s-Paragraph_16-32ba6">
            <tspan font-family="Arial" font-weight="400" font-style="normal" font-size="18.0" fill="#999999" dy="0.0" x="84.0">ex: vinegard</tspan>
        </text>
    </g>
    <g>
        <defs>
            <rect x="69.0" y="352.0" width="242.80730506462808" height="38.0" rx="4" ry="4" id="s-Rectangle_15-32ba6-path"></rect>
        </defs>
        <g style="mix-blend-mode:normal">
            <use xmlns:xlink="http://www.w3.org/1999/xlink" xlink:href="#s-Rectangle_15-32ba6-path" fill="#FFFFFF" fill-opacity="1.0" stroke-width="2.0" stroke="#9A2FAE"></use>
        </g>
    </g>
    <g>
        <text x="216.0" y="376.4375" font-family="SansSerif" font-weight="400" font-style="normal" font-size="16.0" fill="#9A2FAE" id="s-Paragraph_20-32ba6">
            <tspan font-family="SansSerif" font-weight="400" font-style="normal" font-size="16.0" fill="#9A2FAE" dy="0.0" x="216.0">Can Wait</tspan>
        </text>
    </g>
    <g>
        <defs>
            <path x="68.0" y="351.0" width="120.90483229722437" height="40.0" d="M72.0 351.0 L188.90483229722437 351.0 L188.90483229722437 391.0 L72.0 391.0 C69.80566491858055 391.0 68.0 389.19433508141947 68.0 387.0 L68.0 355.0 C68.0 352.80566491858053 69.80566491858055 351.0 72.0 351.0 Z " id="s-Rectangle_21-32ba6-path"></path>
        </defs>
        <g style="mix-blend-mode:normal">
            <use xmlns:xlink="http://www.w3.org/1999/xlink" xlink:href="#s-Rectangle_21-32ba6-path" fill="#9A2FAE" fill-opacity="1.0"></use>
        </g>
    </g>
    <g>
        <text x="91.0" y="375.4375" font-family="SansSerif" font-weight="400" font-style="normal" font-size="16.0" fill="#FFFFFF" id="s-Paragraph_21-32ba6">
            <tspan font-family="SansSerif" font-weight="400" font-style="normal" font-size="16.0" fill="#FFFFFF" dy="0.0" x="91.0">Need Now</tspan>
        </text>
    </g>
    <g>
        <text x="68.99999999999997" y="343.34130859375" font-family="SansSerif" font-weight="400" font-style="normal" font-size="18.0" fill="#673FB4" id="s-Paragraph_18-32ba6">
            <tspan font-family="SansSerif" font-weight="400" font-style="normal" font-size="18.0" fill="#673FB4" dy="0.0" x="68.99999999999997">Priority:</tspan>
        </text>
    </g>
    <g>
        <text x="104.0" y="437.34130859375" font-family="SansSerif" font-weight="400" font-style="normal" font-size="18.0" fill="#673FB4" id="s-Paragraph_3-32ba6">
            <tspan font-family="SansSerif" font-weight="400" font-style="normal" font-size="18.0" fill="#673FB4" dy="0.0" x="104.0">Exact brand</tspan>
        </text>
    </g>
    <g>
        <defs>
            <path id="s-Path_2-32ba6" d="M90.32142857142857 442.0 L70.67857142857143 442.0 C69.19921873722758 442.0 68.0 440.8007812627724 68.0 439.32142857142856 L68.0 419.67857142857144 C68.0 418.1992187372276 69.19921873722758 417.0 70.67857142857143 417.0 L90.32142857142857 417.0 C91.80078126277242 417.0 93.0 418.1992187372276 93.0 419.67857142857144 L93.0 439.32142857142856 C93.0 440.8007812627724 91.80078126277242 442.0 90.32142857142857 442.0 Z M78.89921849114555 436.5279576948711 L89.16707563400269 426.2601005520139 C89.5157363563776 425.911439829639 89.5157363563776 425.34609387176374 89.16707563400269 424.9974330961704 L87.90440817815916 423.73476564032694 C87.55574745578426 423.386104917952 86.990401497909 423.3860491184252 86.64168494939804 423.73476564032694 L78.26785714285714 432.1085376739502 L74.35831483772823 428.1989953688213 C74.00965411535331 427.85033464644636 73.44430815747806 427.85033464644636 73.0955916089671 428.1989953688213 L71.83292415312359 429.46166282466476 C71.48426343074867 429.8103235470397 71.48426343074867 430.3756695049149 71.83292415312359 430.7243302805083 L77.63649558169502 436.52790170907974 C77.98521210359675 436.8766740305083 78.55050226194518 436.8766740305083 78.89921881045613 436.5279575126538 Z "></path>
        </defs>
        <g style="mix-blend-mode:normal">
            <use xmlns:xlink="http://www.w3.org/1999/xlink" xlink:href="#s-Path_2-32ba6" fill="#9A2FAE" fill-opacity="1.0"></use>
        </g>
    </g>
    <g>
        <text x="104.0" y="476.34130859375" font-family="SansSerif" font-weight="400" font-style="normal" font-size="18.0" fill="#673FB4" id="s-Paragraph_4-32ba6">
            <tspan font-family="SansSerif" font-weight="400" font-style="normal" font-size="18.0" fill="#673FB4" dy="0.0" x="104.0">Add in shopping cart</tspan>
        </text>
    </g>
    <g>
        <defs>
            <path id="s-Path_8-32ba6" d="M90.32142857142857 481.0 L70.67857142857143 481.0 C69.19921873722758 481.0 68.0 479.8007812627724 68.0 478.32142857142856 L68.0 458.67857142857144 C68.0 457.1992187372276 69.19921873722758 456.0 70.67857142857143 456.0 L90.32142857142857 456.0 C91.80078126277242 456.0 93.0 457.1992187372276 93.0 458.67857142857144 L93.0 478.32142857142856 C93.0 479.8007812627724 91.80078126277242 481.0 90.32142857142857 481.0 Z M78.89921849114555 475.5279576948711 L89.16707563400269 465.2601005520139 C89.5157363563776 464.911439829639 89.5157363563776 464.34609387176374 89.16707563400269 463.9974330961704 L87.90440817815917 462.73476564032694 C87.55574745578426 462.386104917952 86.990401497909 462.3860491184252 86.64168494939804 462.73476564032694 L78.26785714285714 471.1085376739502 L74.35831483772823 467.1989953688213 C74.00965411535331 466.85033464644636 73.44430815747806 466.85033464644636 73.0955916089671 467.1989953688213 L71.83292415312359 468.46166282466476 C71.48426343074867 468.8103235470397 71.48426343074867 469.3756695049149 71.83292415312359 469.7243302805083 L77.63649558169502 475.52790170907974 C77.98521210359675 475.8766740305083 78.55050226194518 475.8766740305083 78.89921881045613 475.5279575126538 Z "></path>
        </defs>
        <g style="mix-blend-mode:normal">
            <use xmlns:xlink="http://www.w3.org/1999/xlink" xlink:href="#s-Path_8-32ba6" fill="#9A2FAE" fill-opacity="1.0"></use>
        </g>
    </g>
</svg>