<?xml version="1.0" encoding="UTF-8"?>
<svg xmlns="http://www.w3.org/2000/svg" width="45.00001525878906" height="52.0" viewBox="688.9999848994873 59.999998646095264 45.00001525878906 52.0" preserveAspectRatio="none">
  <g>
    <defs>
      <path id="s-Path_10-3c46d" d="M733.9863028743061 107.69781243801111 L731.3871713050028 76.64203131198887 C731.215010964259 74.5831563770771 729.4868801128529 73.0 727.4119806152161 73.0 L724.5550165046045 73.0 C724.5550165046045 65.8203436136246 718.7101321515322 60.0 711.5002036560863 60.0 C704.2902751606398 60.0 698.4453908075678 65.8203436136246 698.4453908075678 73.0 L695.5884266969565 73.0 C693.5135273938515 73.0 691.7853967126606 74.58356250077486 691.6132360071697 76.64203131198887 L689.0141044378665 107.69781243801111 C688.8199140922704 110.01384377479548 690.6557472220426 112.0 692.9892951276532 112.0 L730.0111129626466 112.0 C732.3442527403927 112.0 734.1800857972155 110.01384377479548 733.9858955245688 107.69781243801111 Z M701.7095033147532 72.99999845027922 L701.7095033147532 72.99999845027922 C701.7095033147532 67.61515465378764 706.0930646448571 63.2499984502793 711.5006129511421 63.2499984502793 C716.9081612574269 63.2499984502793 721.2917225875307 67.61515465378764 721.2917225875307 72.99999845027922 L701.7095033147532 72.99999845027922 Z "></path>
    </defs>
    <g>
      <use xmlns:xlink="http://www.w3.org/1999/xlink" xlink:href="#s-Path_10-3c46d" fill="#8501EC" fill-opacity="1.0" filter="none"></use>
    </g>
  </g>
</svg>