<?xml version="1.0" encoding="UTF-8"?>
<svg xmlns="http://www.w3.org/2000/svg" width="33.00001525878906" height="39.36512756347656" viewBox="314.99998489948746 13.999998646095264 33.00001525878906 39.36512756347656" preserveAspectRatio="none">
    <g>
        <defs>
            <path id="s-Path_6-7805d" d="M347.98995544115786 50.10828006796551 L346.08392562366885 26.598379187601203 C345.9576747071235 25.039766140696287 344.6903787494256 23.841282375236844 343.1687857844919 23.841282375236844 L341.0736787700434 23.841282375236844 C341.0736787700434 18.406126540198933 336.78743024445714 14.0 331.5001493477967 14.0 C326.21286845113605 14.0 321.9266199255499 18.406126540198933 321.9266199255499 23.841282375236844 L319.8315129111015 23.841282375236844 C318.3099200888246 23.841282375236844 317.0426242559513 25.040073585156982 316.91637307192457 26.598379187601203 L315.0103432544355 50.10828006796551 C314.8679370009986 51.861566096826465 316.2142146294982 53.36512950094736 317.92548309361246 53.36512950094736 L345.0748161726076 53.36512950094736 C346.7857853429547 53.36512950094736 348.13206291795814 51.861566096826465 347.98965671801733 50.10828006796551 Z M324.3203024308192 23.84128120206457 L324.3203024308192 23.84128120206457 C324.3203024308192 19.76483748300175 327.5349140728954 16.46031942063695 331.5004494975043 16.46031942063695 C335.4659849221132 16.46031942063695 338.6805965641892 19.76483748300175 338.6805965641892 23.84128120206457 L324.3203024308192 23.84128120206457 Z "></path>
        </defs>
        <g style="mix-blend-mode:normal">
            <use xmlns:xlink="http://www.w3.org/1999/xlink" xlink:href="#s-Path_6-7805d" fill="#FFFFFF" fill-opacity="1.0"></use>
        </g>
    </g>
</svg>