<?xml version="1.0" encoding="UTF-8"?>
<svg xmlns="http://www.w3.org/2000/svg" width="141.82006835937506" height="129.8200666158204" viewBox="123.0 76.00000000000001 141.82006835937506 129.8200666158204" preserveAspectRatio="none">
    <g>
        <defs>
            <path id="s-Path_12-32ba6" d="M218.6998974651683 106.56690841288811 C218.70640772288925 107.00961738200432 218.77151196902878 107.82016425700432 218.8952099651683 108.99854903788811 C218.4264599651683 108.73162227244622 217.6745068401683 108.41586738200432 216.6393505901683 108.05128341288811 L216.1901318401683 109.43800216288811 C216.94534009402878 109.63982539744622 217.7428662151683 109.82211738200432 218.5827099651683 109.98487716288811 C218.25718897288925 110.28435664744622 217.71682446902878 110.89959102244622 216.9616162151683 111.83058028788811 L218.1139599651683 112.66065841288811 C218.47854321902878 112.17888789744622 218.90172022288925 111.47901778788811 219.3834912151683 110.56104903788811 C219.89781397288925 111.44646602244622 220.3437773556102 112.14633613200432 220.7213818401683 112.66065841288811 L221.8932568401683 111.83058028788811 C221.1706005901683 110.94516425700432 220.61070459788925 110.32992988200432 220.2135693401683 109.98487716288811 C221.0078398556102 109.89373164744622 221.8183867306102 109.71143966288811 222.6452099651683 109.43800216288811 L222.1959912151683 108.05128341288811 C221.3301054806102 108.33774238200432 220.56187647288925 108.65024238200432 219.8913037151683 108.98878341288811 C220.0215117306102 108.01873260112053 220.0963818401683 107.21144061656243 220.1159130901683 106.56690841288811 Z "></path>
        </defs>
        <g style="mix-blend-mode:normal">
            <use xmlns:xlink="http://www.w3.org/1999/xlink" xlink:href="#s-Path_12-32ba6" fill="#9A2FAE" fill-opacity="1.0"></use>
        </g>
    </g>
    <g>
        <defs>
            <ellipse cx="187.91003330791054" cy="140.91003330791023" rx="63.91003330791054" ry="63.9100333079102" id="s-Ellipse_3-32ba6-path"></ellipse>
        </defs>
        <g style="mix-blend-mode:normal">
            <use xmlns:xlink="http://www.w3.org/1999/xlink" xlink:href="#s-Ellipse_3-32ba6-path" fill="none" stroke-width="2.0" stroke="#9A2FAE"></use>
        </g>
    </g>
    <g>
        <defs>
            <path id="s-Path_3-32ba6" d="M211.88189513310442 130.02483196891924 L211.88189513310442 156.6196006059671 C211.88189513310442 159.06668869236216 209.89652177999147 161.05206204547505 207.4494336935965 161.05206204547505 L169.03476788452747 161.05206204547505 C166.58767979813246 161.05206204547505 164.6023064450195 159.06668869236216 164.6023064450195 156.6196006059671 L164.6023064450195 130.02483196891924 C164.6023064450195 127.57774388252423 166.58767979813246 125.59237052941127 169.03476788452747 125.59237052941127 L177.16094719029206 125.59237052941127 L178.296765451779 122.55428744351104 C178.9431660783739 120.82747427058396 180.5961047882977 119.68242176727041 182.44296389755624 119.68242176727041 L194.0320037029364 119.68242176727041 C195.87886263606472 119.68242176727041 197.5318015221187 120.82747427058396 198.1782021487136 122.55428744351104 L199.32325438783187 125.59237052941127 L207.4494336935965 125.59237052941127 C209.89652177999147 125.59237052941127 211.88189513310442 127.57774388252423 211.88189513310442 130.02483196891924 Z M199.32325438783187 143.32221628744318 C199.32325438783187 137.20911350059677 194.35520392816878 132.2410626886733 188.24210078906196 132.2410626886733 C182.12899764995515 132.2410626886733 177.16094719029206 137.20911314833637 177.16094719029206 143.32221628744318 C177.16094719029206 149.43531942655002 182.12899764995515 154.4033698862131 188.24210078906196 154.4033698862131 C194.35520392816878 154.4033698862131 199.32325438783187 149.43531942655002 199.32325438783187 143.32221628744318 Z M196.36828009482656 143.32221628744318 C196.36828009482656 147.80084920027943 192.72073370189813 151.4483955932078 188.24210078906196 151.4483955932078 C183.7634678762258 151.4483955932078 180.11592148329737 147.80084920027943 180.11592148329737 143.32221628744318 C180.11592148329737 138.84358337460702 183.7634678762258 135.19603698167856 188.24210078906196 135.19603698167856 C192.72073370189813 135.19603698167856 196.36828009482656 138.84358337460702 196.36828009482656 143.32221628744318 Z "></path>
        </defs>
        <g style="mix-blend-mode:normal">
            <use xmlns:xlink="http://www.w3.org/1999/xlink" xlink:href="#s-Path_3-32ba6" fill="#9A2FAE" fill-opacity="1.0" stroke-width="2.0" stroke="#FFFFFF" stroke-linecap="butt"></use>
        </g>
    </g>
    <g>
        <defs>
            <path id="s-Path_11-32ba6" d="M247.32006835937506 78.0 C237.65272964969765 78.0 229.82006835937506 85.83266129032258 229.82006835937506 95.5 C229.82006835937506 105.16733870967742 237.65272964969765 113.0 247.32006835937506 113.0 C256.9874070690525 113.0 264.82006835937506 105.16733870967742 264.82006835937506 95.5 C264.82006835937506 85.83266129032258 256.9874070690525 78.0 247.32006835937506 78.0 Z M257.4813586819557 97.4758064516129 C257.4813586819557 97.94153225133496 257.1003102881294 98.3225806451613 256.6345844884073 98.3225806451613 L250.14264900453634 98.3225806451613 L250.14264900453634 104.81451612903226 C250.14264900453634 105.28024192875432 249.76160061071002 105.66129032258064 249.29587481098795 105.66129032258064 L245.34426190776216 105.66129032258064 C244.8785361080401 105.66129032258064 244.49748771421378 105.28024192875432 244.49748771421378 104.81451612903226 L244.49748771421378 98.3225806451613 L238.0055522303428 98.3225806451613 C237.53982643062074 98.3225806451613 237.15877803679442 97.94153225133496 237.15877803679442 97.4758064516129 L237.15877803679442 93.5241935483871 C237.15877803679442 93.05846774866504 237.53982643062074 92.67741935483872 238.0055522303428 92.67741935483872 L244.49748771421378 92.67741935483872 L244.49748771421378 86.18548387096774 C244.49748771421378 85.71975807124569 244.8785361080401 85.33870967741936 245.34426190776216 85.33870967741936 L249.29587481098795 85.33870967741936 C249.76160061071002 85.33870967741936 250.14264900453634 85.71975807124569 250.14264900453634 86.18548387096774 L250.14264900453634 92.67741935483872 L256.6345844884073 92.67741935483872 C257.1003102881294 92.67741935483872 257.4813586819557 93.05846774866504 257.4813586819557 93.5241935483871 L257.4813586819557 97.4758064516129 Z "></path>
        </defs>
        <g style="mix-blend-mode:normal">
            <use xmlns:xlink="http://www.w3.org/1999/xlink" xlink:href="#s-Path_11-32ba6" fill="#9A2FAE" fill-opacity="1.0"></use>
        </g>
    </g>
</svg>