<?xml version="1.0" encoding="UTF-8"?>
<svg xmlns="http://www.w3.org/2000/svg" width="124.82006668297385" height="124.82006668297313" viewBox="128.0 76.00000000000006 124.82006668297385 124.82006668297313" preserveAspectRatio="none">
    <g>
        <text x="165.50225252300902" y="120.1308585930066" font-family="Arial" font-weight="400" font-style="normal" font-size="20.0" fill="#9A2FAE" id="s-Paragraph_17-32ba6">
            <tspan font-family="Arial" font-weight="400" font-style="normal" font-size="20.0" fill="#9A2FAE" dy="0.0" x="165.50225252300902">*</tspan>
        </text>
    </g>
    <g>
        <defs>
            <ellipse cx="190.41003334148692" cy="138.4100333414866" rx="61.41003334148692" ry="61.41003334148657" id="s-Ellipse_3-32ba6-path"></ellipse>
        </defs>
        <g style="mix-blend-mode:normal">
            <use xmlns:xlink="http://www.w3.org/1999/xlink" xlink:href="#s-Ellipse_3-32ba6-path" fill="none" stroke-width="2.0" stroke="#9A2FAE"></use>
        </g>
    </g>
    <g>
        <defs>
            <path id="s-Path_3-32ba6" d="M213.04433358568593 127.6132433307391 L213.04433358568593 153.1837185371508 C213.04433358568593 155.5365574016297 211.1354265824295 157.44546440488608 208.78258771795066 157.44546440488608 L171.84745686424492 157.44546440488608 C169.49461799976606 157.44546440488608 167.58571099650965 155.5365574016297 167.58571099650965 153.1837185371508 L167.58571099650965 127.6132433307391 C167.58571099650965 125.26040446626024 169.49461799976606 123.35149746300381 171.84745686424492 123.35149746300381 L179.66065762175958 123.35149746300381 L180.75273001730142 120.43042568068302 C181.37423462301282 118.7701204519725 182.96351065231977 117.66916947001019 184.73923826655604 117.66916947001019 L195.8819279832389 117.66916947001019 C197.6576554281286 117.66916947001019 199.24693162678213 118.7701204519725 199.8684362324935 120.43042568068302 L200.96938696043597 123.35149746300381 L208.78258771795066 123.35149746300381 C211.1354265824295 123.35149746300381 213.04433358568593 125.26040446626024 213.04433358568593 127.6132433307391 Z M200.96938696043597 140.39848093394494 C200.96938696043597 134.52082336231456 196.19268020142133 129.7441162646068 190.3150222910978 129.7441162646068 C184.43736438077426 129.7441162646068 179.66065762175958 134.5208230236214 179.66065762175958 140.39848093394494 C179.66065762175958 146.2761388442685 184.43736438077426 151.05284560328315 190.3150222910978 151.05284560328315 C196.19268020142133 151.05284560328315 200.96938696043597 146.2761388442685 200.96938696043597 140.39848093394494 Z M198.12822304861248 140.39848093394494 C198.12822304861248 144.70461998780254 194.6211613449553 148.21168169145963 190.3150222910978 148.21168169145963 C186.00888323724027 148.21168169145963 182.50182153358313 144.70461998780254 182.50182153358313 140.39848093394494 C182.50182153358313 136.09234188008745 186.00888323724027 132.58528017643027 190.3150222910978 132.58528017643027 C194.6211613449553 132.58528017643027 198.12822304861248 136.09234188008745 198.12822304861248 140.39848093394494 Z "></path>
        </defs>
        <g style="mix-blend-mode:normal">
            <use xmlns:xlink="http://www.w3.org/1999/xlink" xlink:href="#s-Path_3-32ba6" fill="#9A2FAE" fill-opacity="1.0" stroke-width="2.0" stroke="#FFFFFF" stroke-linecap="butt"></use>
        </g>
    </g>
</svg>