<?xml version="1.0" encoding="UTF-8"?>
<svg xmlns="http://www.w3.org/2000/svg" width="129.4931486454344" height="29.166671752929688" viewBox="215.0000154170656 125.99999864609526 129.4931486454344 29.166671752929688" preserveAspectRatio="none">
    <g>
        <defs>
            <path id="s-Path_6-a4cdf" d="M239.99239048572556 152.75358069439721 L238.54842850277942 135.33447269101936 C238.45278386903286 134.1796550191939 237.4927111738072 133.29166666666666 236.33998923067563 133.29166666666666 L234.75278694700253 133.29166666666666 C234.75278694700253 129.26461580892402 231.50562897307356 126.0 227.50011314227015 126.0 C223.4945973114667 126.0 220.24743933753777 129.26461580892402 220.24743933753777 133.29166666666666 L218.66023705386482 133.29166666666666 C217.50751521880647 133.29166666666666 216.5474426181449 134.1798828129346 216.451797781761 135.33447269101936 L215.00783579881477 152.75358069439721 C214.8999522734837 154.0526367326577 215.9198595678016 155.16666666666663 217.21627507091856 155.16666666666663 L237.78395164591484 155.16666666666663 C239.08014041132924 155.16666666666663 240.10004766511977 154.0526367326577 239.99216418031614 152.75358069439721 Z M222.06083517486297 133.29166579743224 L222.06083517486297 133.29166579743224 C222.06083517486297 130.2713207192719 224.49614702492073 127.82291579743227 227.5003405284123 127.82291579743227 C230.5045340319039 127.82291579743227 232.9398458819615 130.2713207192719 232.9398458819615 133.29166579743224 L222.06083517486297 133.29166579743224 Z "></path>
        </defs>
        <g style="mix-blend-mode:normal">
            <use xmlns:xlink="http://www.w3.org/1999/xlink" xlink:href="#s-Path_6-a4cdf" fill="#E2208A" fill-opacity="1.0"></use>
        </g>
    </g>
    <g>
        <text x="247.0" y="148.5" font-family="Roboto" font-weight="900" font-style="normal" font-size="14.0" fill="#000000" id="s-Paragraph-a4cdf">
            <tspan font-family="Roboto" font-weight="900" font-style="normal" font-size="14.0" fill="#000000" dy="0.0" x="247.0">UBUUY</tspan>
            <tspan font-family="Roboto" font-weight="900" font-style="normal" font-size="14.0" fill="#E2208A" dy="0.0">APP</tspan>
        </text>
    </g>
</svg>