<?xml version="1.0" encoding="UTF-8"?>
<svg xmlns="http://www.w3.org/2000/svg" width="35.0" height="35.0" viewBox="236.82006835937494 85.32006863158259 35.0 35.0" preserveAspectRatio="none">
    <g>
        <defs>
            <path id="s-Path_8-32ba6" d="M254.32006835937494 85.32006863158259 C244.65272964969753 85.32006863158259 236.82006835937494 93.15272992190515 236.82006835937494 102.82006863158256 C236.82006835937494 112.48740734125997 244.65272964969753 120.32006863158253 254.32006835937494 120.32006863158253 C263.9874070690524 120.32006863158253 271.82006835937494 112.48740734125997 271.82006835937494 102.82006863158256 C271.82006835937494 93.15272992190515 263.9874070690524 85.32006863158259 254.32006835937494 85.32006863158259 Z M245.0055522303427 105.64264927674385 C244.53982643062062 105.64264927674385 244.1587780367943 105.26160088291752 244.1587780367943 104.79587508319545 L244.1587780367943 100.84426217996966 C244.1587780367943 100.37853638024761 244.53982643062062 99.99748798642128 245.0055522303427 99.99748798642128 L263.6345844884072 99.99748798642128 C264.10031028812926 99.99748798642128 264.4813586819556 100.37853638024761 264.4813586819556 100.84426217996966 L264.4813586819556 104.79587508319545 C264.4813586819556 105.26160088291752 264.10031028812926 105.64264927674385 263.6345844884072 105.64264927674385 L245.0055522303427 105.64264927674385 Z "></path>
        </defs>
        <g style="mix-blend-mode:normal">
            <use xmlns:xlink="http://www.w3.org/1999/xlink" xlink:href="#s-Path_8-32ba6" fill="#E2208A" fill-opacity="1.0"></use>
        </g>
    </g>
</svg>