<?xml version="1.0" encoding="UTF-8"?>
<svg xmlns="http://www.w3.org/2000/svg" width="25.0" height="25.0" viewBox="319.0 414.0 25.0 25.0" preserveAspectRatio="none">
    <g>
        <defs>
            <path id="s-Path_75-81e6e" d="M331.5 414.0 C324.59628903865814 414.0 319.0 419.59628903865814 319.0 426.5 C319.0 433.40371096134186 324.59628903865814 439.0 331.5 439.0 C338.40371096134186 439.0 344.0 433.40371096134186 344.0 426.5 C344.0 419.59628903865814 338.40371096134186 414.0 331.5 414.0 Z M336.5978511571884 427.6048823595047 L330.3478511571884 433.8548823595047 C329.7376948930323 434.4650386236608 328.74843706935644 434.4650386236608 328.13808550685644 433.8548823595047 C327.52773394435644 433.2447260953486 327.52792924270034 432.2554682716727 328.13808550685644 431.6451167091727 L333.2832027748227 426.49999944120646 L328.13808550685644 421.3548821732402 C327.52792924270034 420.7447259090841 327.52792924270034 419.7554680854082 328.13808550685644 419.1451165229082 C328.74824177101254 418.5347649604082 329.7374995946884 418.5347649604082 330.3478511571884 419.1451165229082 L336.5978511571884 425.3951165229082 C336.8806636482477 425.6779290139675 337.05546833202243 426.0685540139675 337.05546833202243 426.4999993480742 C337.05546833202243 426.9314446821809 336.8806636482477 427.3220696821809 336.5978511571884 427.6048821732402 Z "></path>
        </defs>
        <g transform="rotate(90.0 331.5 426.5)" style="mix-blend-mode:normal">
            <use xmlns:xlink="http://www.w3.org/1999/xlink" xlink:href="#s-Path_75-81e6e" fill="#9A2FAE" fill-opacity="1.0"></use>
        </g>
    </g>
</svg>